<?xml version="1.0" encoding="UTF-8"?>
<svg id="Layer_2" data-name="Layer 2" xmlns="http://www.w3.org/2000/svg" viewBox="0 0 404.15 272.04">
  <defs>
    <style>
      .cls-1 {
        stroke: #000;
        stroke-miterlimit: 10;
      }

      .cls-2 {
        fill: none;
      }
    </style>
  </defs>
  <g id="Layer_1-2">
    <g id="Stevenson">
      <polyline class="cls-1" points="231.97 180.78 222.97 185.49 9.47 204.99 39.63 260.49 217.88 251.49 227.97 242.49 239.26 251.49 365.97 271.49 398.97 214.49 236.97 185.49"/>
      <g>
        <polygon class="cls-2" points="112.05 108.74 75.7 147.31 53.9 191.53 83.41 188.9 124.55 107.62 112.05 108.74"/>
        <polygon class="cls-2" points="29.05 193.74 49.94 191.88 66.14 157.37 29.05 193.74"/>
        <polygon class="cls-2" points="127.93 107.31 88.78 188.43 117.92 185.83 158.08 104.6 127.93 107.31"/>
        <polygon class="cls-2" points="137.55 84.24 119.73 103.24 127.98 102.61 137.55 84.24"/>
        <polygon class="cls-2" points="310.55 111.24 276.55 78.24 299.55 109.24 310.55 111.24"/>
        <polygon class="cls-2" points="162.05 104.24 122.35 185.44 151.78 182.82 193.81 101.38 162.05 104.24"/>
        <polygon class="cls-2" points="160.65 100 195.55 32.24 187.41 35.28 142.55 80.24 131.01 102.61 160.65 100"/>
        <polygon class="cls-2" points="211.36 94.35 209.81 78.92 200.55 95.24 211.36 94.35"/>
        <polygon class="cls-2" points="212.05 99.74 198 101.01 157.23 182.33 187.51 179.64 214.55 127.24 212.05 99.74"/>
        <polygon class="cls-2" points="195.04 96.96 209.08 71.62 204.55 29.24 199.55 31.24 165.73 99.55 195.04 96.96"/>
        <polygon class="cls-2" points="292.1 107.13 270.55 76.27 227.55 32.24 270.55 103.49 292.1 107.13"/>
        <polygon class="cls-2" points="242.55 103.24 292.42 187.83 315.63 191.38 268.55 107.24 242.55 103.24"/>
        <polygon class="cls-2" points="273.03 108.17 320.31 192.1 343.78 195.69 296.04 112.19 273.03 108.17"/>
        <polygon class="cls-2" points="351.97 159.49 375.97 200.49 388.97 202.49 351.97 159.49"/>
        <polygon class="cls-2" points="193.81 178.49 220.05 176.74 215.55 136.24 193.81 178.49"/>
        <path class="cls-2" d="m308.41,114.35l-7.88-1.38,48.19,83.47,23.1,3.53s-24.54-50.53-63.4-85.63h-.01Z"/>
        <polygon class="cls-2" points="227.55 100.24 231.55 132.24 262.8 183.3 286.44 186.92 237.55 102.24 227.55 100.24"/>
        <polygon class="cls-2" points="265.31 102.61 219.78 29.24 224.95 73.87 240.91 98.5 265.31 102.61"/>
        <polygon class="cls-2" points="236.9 97.82 226.16 84.29 227.55 96.24 236.9 97.82"/>
        <polygon class="cls-2" points="238.11 179.52 257.72 182.52 233.55 142.24 238.11 179.52"/>
        <path class="cls-1" d="m209.62.51s-.05-.02-.07,0c0,0-172.7,167.76-203.28,197.5l2.94,6.42,212.77-18.94,9-4.71,4.59,4.71,163.18,29.01,4.78-8.45L209.62.51Zm100.93,110.73l-11-2-23-31,34,33Zm-40-34.97l21.56,30.86-21.56-3.64-43-71.25,43,44.03Zm-60.73,2.64l1.54,15.44-10.81.89,9.27-16.32h0Zm-5.27-49.68l4.54,42.38-14.04,25.35-29.31,2.59,33.81-68.31,5-2h0Zm-17.14,6.04l8.14-3.04-34.9,67.76-29.64,2.62,11.54-22.37,44.86-44.96h0Zm-49.86,48.96l-9.57,18.37-8.25.63,17.82-19ZM29.05,193.73l37.09-36.38-16.2,34.52-20.9,1.86h.01Zm24.86-2.21l21.79-44.22,36.35-38.57,12.5-1.12-41.14,81.29-29.5,2.63h0Zm34.87-3.1l39.16-81.11,30.14-2.71-40.16,81.23-29.14,2.59Zm33.57-2.99l39.7-81.2,31.76-2.86-42.03,81.43-29.43,2.62h0Zm34.89-3.1l40.77-81.33,14.04-1.26,2.5,27.5-27.03,52.4-30.28,2.7h0Zm36.57-3.84l21.74-42.25,4.5,40.5-26.24,1.75Zm25.97-149.25l45.54,73.37-24.41-4.12-15.95-24.62-5.17-44.63h0Zm17.13,68.58l-9.36-1.58-1.39-11.95,10.74,13.53h.01Zm1.2,81.7l-4.56-37.28,24.17,40.28-19.61-3h0Zm24.69,3.78l-31.26-51.06-4-32,10,2,48.9,84.67-23.64-3.62h0Zm29.62,4.53l-49.88-84.59,26,4,47.09,84.14-23.21-3.55h0Zm27.89,4.27l-47.29-83.92,23.01,4.01,47.74,83.5-23.47-3.59h.01Zm28.39,4.34l-48.19-83.47,7.88,1.38c38.86,35.1,63.4,85.63,63.4,85.63l-23.1-3.53h.01Zm3.26-36.95l37,43-13-2-24-41h0Z"/>
        <path class="cls-2" d="m1.66,202.5s1.63-1.59,4.61-4.49l-.64-1.4-5.63,6.94,9.73,2.02-.52-1.13-.61.05-6.93-1.99h0Z"/>
        <path class="cls-2" d="m1.66,202.5s6.93,1.98,6.93,1.99l.61-.05-2.94-6.42c-2.97,2.89-4.61,4.48-4.61,4.49h0Z"/>
      </g>
    </g>
  </g>
</svg>