<?xml version="1.0" encoding="UTF-8"?>
<svg id="Layer_2" data-name="Layer 2" xmlns="http://www.w3.org/2000/svg" viewBox="0 0 416.48 272.04">
  <defs>
    <style>
      .cls-1 {
        stroke: #000;
        stroke-miterlimit: 10;
      }

      .cls-2 {
        fill: none;
      }
    </style>
  </defs>
  <g id="Layer_2">
    <g id="Stevenson">
      <polyline class="cls-1" points="234.18 180.78 225.18 185.49 11.68 204.99 41.84 260.49 220.09 251.49 230.18 242.49 241.47 251.49 368.18 271.49 401.18 214.49 239.18 185.49"/>
      <g>
        <polygon class="cls-2" points="114.26 108.74 77.91 147.31 56.11 191.53 85.62 188.9 126.76 107.62 114.26 108.74"/>
        <polygon class="cls-2" points="31.26 193.74 52.15 191.88 68.35 157.37 31.26 193.74"/>
        <polygon class="cls-2" points="130.14 107.31 90.99 188.43 120.13 185.83 160.29 104.6 130.14 107.31"/>
        <polygon class="cls-2" points="139.76 84.24 121.94 103.24 130.19 102.61 139.76 84.24"/>
        <polygon class="cls-2" points="312.76 111.24 278.76 78.24 301.76 109.24 312.76 111.24"/>
        <polygon class="cls-2" points="164.26 104.24 124.56 185.44 153.99 182.82 196.02 101.38 164.26 104.24"/>
        <polygon class="cls-2" points="162.86 100 197.76 32.24 189.62 35.28 144.76 80.24 133.22 102.61 162.86 100"/>
        <polygon class="cls-2" points="213.57 94.35 212.02 78.92 202.76 95.24 213.57 94.35"/>
        <polygon class="cls-2" points="214.26 99.74 200.21 101.01 159.44 182.33 189.72 179.64 216.76 127.24 214.26 99.74"/>
        <polygon class="cls-2" points="197.25 96.96 211.29 71.62 206.76 29.24 201.76 31.24 167.94 99.55 197.25 96.96"/>
        <polygon class="cls-2" points="294.31 107.13 272.76 76.27 229.76 32.24 272.76 103.49 294.31 107.13"/>
        <polygon class="cls-2" points="244.76 103.24 294.63 187.83 317.84 191.38 270.76 107.24 244.76 103.24"/>
        <polygon class="cls-2" points="275.24 108.17 322.52 192.1 345.99 195.69 298.25 112.19 275.24 108.17"/>
        <polygon class="cls-2" points="354.18 159.49 378.18 200.49 391.18 202.49 354.18 159.49"/>
        <polygon class="cls-2" points="196.02 178.49 222.26 176.74 217.76 136.24 196.02 178.49"/>
        <path class="cls-2" d="m310.62,114.35l-7.88-1.38,48.19,83.47,23.1,3.53s-24.54-50.53-63.4-85.63h-.01Z"/>
        <polygon class="cls-2" points="229.76 100.24 233.76 132.24 265.01 183.3 288.65 186.92 239.76 102.24 229.76 100.24"/>
        <polygon class="cls-2" points="267.52 102.61 221.99 29.24 227.16 73.87 243.12 98.5 267.52 102.61"/>
        <polygon class="cls-2" points="239.11 97.82 228.37 84.29 229.76 96.24 239.11 97.82"/>
        <polygon class="cls-2" points="240.32 179.52 259.93 182.52 235.76 142.24 240.32 179.52"/>
        <path class="cls-1" d="m211.83.51s-.05-.02-.07,0c0,0-172.7,167.76-203.28,197.5l2.94,6.42,212.77-18.94,9-4.71,4.59,4.71,163.18,29.01,4.78-8.45L211.83.51Zm100.93,110.73l-11-2-23-31,34,33Zm-40-34.97l21.56,30.86-21.56-3.64-43-71.25,43,44.03Zm-60.73,2.64l1.54,15.44-10.81.89,9.27-16.32h0Zm-5.27-49.68l4.54,42.38-14.04,25.35-29.31,2.59,33.81-68.31,5-2h0Zm-17.14,6.04l8.14-3.04-34.9,67.76-29.64,2.62,11.54-22.37,44.86-44.96h0Zm-49.86,48.96l-9.57,18.37-8.25.63s17.82-19,17.82-19ZM31.26,193.73l37.09-36.38-16.2,34.52-20.9,1.86h.01Zm24.86-2.21l21.79-44.22,36.35-38.57,12.5-1.12-41.14,81.29-29.5,2.63h0Zm34.87-3.1l39.16-81.11,30.14-2.71-40.16,81.23-29.14,2.59h0Zm33.57-2.99l39.7-81.2,31.76-2.86-42.03,81.43-29.43,2.62h0Zm34.89-3.1l40.77-81.33,14.04-1.26,2.5,27.5-27.03,52.4-30.28,2.7h0Zm36.57-3.84l21.74-42.25,4.5,40.5-26.24,1.75Zm25.97-149.25l45.54,73.37-24.41-4.12-15.95-24.62-5.17-44.63h0Zm17.13,68.58l-9.36-1.58-1.39-11.95,10.74,13.53h.01Zm1.2,81.7l-4.56-37.28,24.17,40.28-19.61-3h0Zm24.69,3.78l-31.26-51.06-4-32,10,2,48.9,84.67-23.64-3.62h0Zm29.62,4.53l-49.88-84.59,26,4,47.09,84.14-23.21-3.55Zm27.89,4.27l-47.29-83.92,23.01,4.01,47.74,83.5-23.47-3.59h.01Zm28.39,4.34l-48.19-83.47,7.88,1.38c38.86,35.1,63.4,85.63,63.4,85.63l-23.1-3.53h.01Zm3.26-36.95l37,43-13-2-24-41Z"/>
        <path class="cls-2" d="m3.87,202.5s1.63-1.59,4.61-4.49l-.64-1.4-5.63,6.94,9.73,2.02-.52-1.13-.61.05-6.93-1.99h0Z"/>
        <path class="cls-2" d="m3.87,202.5s6.93,1.98,6.93,1.99l.61-.05-2.94-6.42c-2.97,2.89-4.61,4.48-4.61,4.49h0Z"/>
      </g>
      <polygon class="cls-1" points="8.48 198.02 1.18 205.49 11.93 205.57 8.48 198.02"/>
      <polygon class="cls-1" points="405.73 206.06 415.18 215.49 400.96 214.51 405.73 206.06"/>
    </g>
  </g>
</svg>