<?xml version="1.0" encoding="UTF-8"?>
<svg id="Layer_2" data-name="Layer 2" xmlns="http://www.w3.org/2000/svg" viewBox="0 0 416.48 272.04">
  <defs>
    <style>
      .cls-1 {
        stroke: #000;
        stroke-miterlimit: 10;
      }

      .cls-2 {
        fill: none;
      }
    </style>
  </defs>
  <g id="newmaster-finals">
    <g id="Stevenson">
      <polygon class="cls-1" points="401.18 214.49 401.16 214.52 400.96 214.51 400.96 214.5 400.99 214.46 401.18 214.49"/>
      <g>
        <polygon class="cls-2" points="126.76 107.62 85.62 188.9 56.12 191.53 56.12 191.52 77.91 147.3 114.26 108.74 126.75 107.62 126.76 107.62"/>
        <polygon class="cls-2" points="68.35 157.37 52.15 191.87 52.15 191.88 31.26 193.74 31.27 193.73 68.33 157.39 68.35 157.37"/>
        <polygon class="cls-2" points="160.29 104.6 120.13 185.83 90.99 188.43 90.99 188.42 91 188.42 103.74 162.02 130.14 107.31 130.15 107.31 160.29 104.6"/>
        <polygon class="cls-2" points="139.75 84.25 130.19 102.6 130.19 102.61 121.94 103.24 121.94 103.23 121.95 103.23 139.75 84.25"/>
        <polygon class="cls-2" points="312.76 111.24 301.76 109.24 278.76 78.24 312.76 111.24"/>
        <polygon class="cls-2" points="196.02 101.38 153.99 182.82 124.56 185.44 124.56 185.43 124.57 185.42 164.26 104.24 196.01 101.38 196.02 101.38"/>
        <polygon class="cls-2" points="197.76 32.24 162.86 99.99 162.86 100 133.22 102.61 144.76 80.24 189.62 35.28 197.75 32.24 197.76 32.24"/>
        <polygon class="cls-2" points="213.57 94.35 202.76 95.24 212.02 78.93 213.57 94.35"/>
        <polygon class="cls-2" points="216.76 127.24 189.72 179.64 159.45 182.33 159.44 182.33 200.21 101.01 200.22 101.01 214.26 99.74 216.76 127.24"/>
        <polygon class="cls-2" points="211.29 71.62 197.25 96.96 167.95 99.55 167.94 99.55 201.76 31.24 206.76 29.24 211.29 71.62"/>
        <polygon class="cls-2" points="294.31 107.13 272.76 103.49 229.76 32.24 272.76 76.27 294.31 107.13"/>
        <polygon class="cls-2" points="317.84 191.38 294.63 187.83 244.76 103.24 270.75 107.24 270.76 107.24 317.84 191.38"/>
        <polygon class="cls-2" points="345.99 195.69 345.98 195.69 322.52 192.1 275.25 108.18 275.24 108.17 298.24 112.19 298.25 112.19 345.99 195.69"/>
        <polygon class="cls-2" points="391.18 202.49 391.17 202.49 378.18 200.49 354.2 159.53 354.18 159.49 391.18 202.49"/>
        <polygon class="cls-2" points="222.26 176.74 196.02 178.49 217.76 136.24 222.26 176.74"/>
        <path class="cls-2" d="m374.03,199.97h-.04s-23.06-3.53-23.06-3.53l-48.19-83.47,7.86,1.38h.03c38.86,35.09,63.4,85.62,63.4,85.62Z"/>
        <polygon class="cls-2" points="288.65 186.91 288.65 186.92 265.01 183.3 265.01 183.29 233.76 132.24 229.76 100.24 239.75 102.24 239.76 102.24 270.75 155.92 288.64 186.91 288.65 186.91"/>
        <polygon class="cls-2" points="243.12 98.5 243.12 98.49 227.16 73.87 221.99 29.24 222 29.26 267.52 102.61 243.12 98.5"/>
        <polygon class="cls-2" points="239.11 97.82 229.76 96.24 228.37 84.29 239.11 97.82"/>
        <polygon class="cls-2" points="259.93 182.52 240.32 179.52 235.76 142.24 259.93 182.52"/>
        <path class="cls-1" d="m31.27,193.73h-.01s20.89-1.85,20.89-1.85h0s-20.88,1.85-20.88,1.85Zm37.06-36.34l-16.18,34.48,16.2-34.5-.02.02Zm22.67,31.03h-.01s29.14-2.59,29.14-2.59l-29.13,2.59Zm35.75-80.8l-41.13,81.28,41.14-81.28h-.01Zm3.39-.31l-26.4,54.71,26.41-54.71h-.01Zm-8.19-4.08h-.01s8.25-.62,8.25-.62h0s-8.24.62-8.24.62Zm11.27-.62l29.64-2.61h0s-29.64,2.61-29.64,2.61Zm62.79-1.23l-42.02,81.42-29.42,2.62h-.01v.02l29.43-2.62,42.03-81.44h-.01Zm1.74-69.14l-34.89,67.75,34.9-67.75h-.01Zm-38.31,150.09h.01l40.76-81.32-40.77,81.32Zm8.5-82.78h.01l33.81-68.31-33.82,68.31Zm59.23-25.68l-5.17-44.61v-.02s5.16,44.63,5.16,44.63l15.96,24.62-15.95-24.62Zm15.95,24.62h0s24.4,4.12,24.4,4.12l-24.4-4.12Zm-3.36,3.75h-.01l31,53.68-30.99-53.68Zm48.88,84.67l-23.63-3.62h0s23.64,3.63,23.64,3.63h0s-.01-.01-.01-.01Zm-13.4-78.74h.01s22.99,4.02,22.99,4.02l-23-4.02Zm-4.48-.93h-.01l47.09,84.14-47.08-84.14Zm27.49,4.95h-.01l47.74,83.5h.01l-47.74-83.5Zm12.38,2.15h-.01s-.02.01-.02.01c38.38,34.67,62.79,84.38,63.39,85.61h.04s-24.54-50.52-63.4-85.62Zm43.55,45.15l.02.04,36.97,42.96h.01l-37-43Z"/>
        <path class="cls-1" d="m405.73,206.06h.01S211.83.51,211.83.51c0,0-.05-.02-.07,0,0,0-172.7,167.76-203.28,197.5h0s-.01.02-.01.02l-4.42,4.52-1.12,1.15-1.75,1.79,10.75.08-.51-1.13.26.55,30.16,55.5,178.25-9,10.09-9,11.29,9,126.71,20,32.98-56.97h-.2v-.02l.03-.04.19.03-.02.03,14.02.97-9.45-9.43Zm-92.97-94.82l-11-2-23-31,34,33Zm-40-34.97l21.56,30.86h-.01l-21.55-3.64-43-71.25,43,44.03Zm-60.74,2.66h0s1.54,15.42,1.54,15.42l-10.81.89,9.26-16.31Zm-5.26-49.69l4.54,42.37h-.01s-14.03,25.35-14.03,25.35h-.01l-29.3,2.59h-.01l33.82-68.31,5-2Zm-17.14,6.04h0s8.13-3.04,8.13-3.04h.01l-34.9,67.75h0s-29.64,2.62-29.64,2.62l11.54-22.37,44.86-44.96Zm-67.68,67.95l17.81-18.98-9.56,18.35h0s-8.25.64-8.25.64h0Zm-69.79,88.65l-20.89,1.86h.01s37.08-36.39,37.08-36.39l-.02.04.02-.02-16.2,34.5h0Zm3.97-.35h0s21.79-44.23,21.79-44.23l36.35-38.56h0s12.5-1.13,12.5-1.13h0s-41.14,81.29-41.14,81.29l-29.5,2.63Zm34.87-3.1h0s12.75-26.41,12.75-26.41l26.4-54.71h.01l30.14-2.71-40.16,81.23-29.14,2.6Zm33.57-2.99h0s.01-.02.01-.02l39.69-81.18h0s31.76-2.87,31.76-2.87h0s-42.03,81.45-42.03,81.45l-29.43,2.62Zm65.16-5.8l-30.27,2.7h0s-.01-.01-.01-.01l40.77-81.32h0s14.04-1.27,14.04-1.27l2.5,27.5-27.03,52.4h-.01Zm6.3-1.15l21.74-42.25,4.5,40.5-26.24,1.75Zm25.97-149.25h.01v.02l45.53,73.35h0l-24.4-4.11h0s-15.96-24.63-15.96-24.63l-5.17-44.63Zm17.12,68.58l-9.35-1.58-1.39-11.95,10.74,13.53Zm1.21,81.7l-4.56-37.28,24.17,40.28-19.61-3Zm48.33,7.4l-23.64-3.62h0s-31.26-51.06-31.26-51.06l-4-32h.01l9.99,2h.01l30.99,53.68,17.9,30.99h0Zm5.98.91l-49.88-84.59h.01l25.99,4h.01l47.08,84.14-23.21-3.55Zm51.35,7.86l-23.46-3.59-47.29-83.92h.02-.01s23,4.01,23,4.01h.01l47.74,83.5h-.01Zm28.02,4.29l-23.1-3.53h0s-48.19-83.48-48.19-83.48h.02l7.86,1.38h.03c38.86,35.09,63.4,85.62,63.4,85.62h-.04s.01.01.01.01Zm17.17,2.51l-12.99-2h-.01l-23.97-40.96-.02-.04,37,43h-.01Z"/>
        <path class="cls-2" d="m7.84,196.61l.64,1.4h0s-.01.01-.01.01c-.65.63-1.23,1.2-1.75,1.71-.32.3-.61.59-.88.85-.17.16-.33.32-.48.47-.11.1-.21.2-.31.3-.58.56-.96.93-1.11,1.09-.03.02-.05.05-.06.06l.07.02s.06.02.1.03l-1.12,1.15-.72-.15,5.63-6.94Z"/>
        <polygon class="cls-2" points="11.94 205.57 11.93 205.57 11.42 204.44 11.68 204.99 11.94 205.57"/>
        <path class="cls-2" d="m6.72,199.73c.52-.51,1.1-1.08,1.75-1.71h0s-4.42,4.53-4.42,4.53c-.04-.01-.07-.02-.1-.03l-.07-.02s.03-.04.06-.06c.15-.16.53-.53,1.11-1.09.1-.1.2-.2.31-.3.15-.15.31-.31.48-.47.27-.26.56-.55.88-.85Z"/>
      </g>
      <polygon class="cls-1" points="401.18 214.49 401.16 214.52 400.96 214.51 400.96 214.5 400.99 214.46 401.18 214.49"/>
    </g>
  </g>
</svg>