<?xml version="1.0" encoding="UTF-8"?>
<svg id="Layer_2" data-name="Layer 2" xmlns="http://www.w3.org/2000/svg" viewBox="0 0 305.75 365.13">
  <defs>
    <style>
      .cls-1 {
        fill: none;
      }

      .cls-1, .cls-2 {
        stroke: #000;
        stroke-miterlimit: 10;
      }
    </style>
  </defs>
  <g id="Layer_1-2">
    <g id="Crown_Merrill">
      <g>
        <path class="cls-2" d="m175.43,1.37c-.82.19-1.72.43-2.17,1.14s.07,1.95.89,1.77c-1.16,2.4-3.17,4.38-5.59,5.51,1.61.33,3.23.66,4.84.99.21,1.08-.98,1.85-1.99,2.29-1.9.84-3.8,1.68-5.7,2.51,1.72.9,3.09,2.47,3.75,4.3-2.29,2.5-5.09,4.54-8.17,5.95,1.81,1.46,2.5,4.16,1.62,6.31.88.2,1.55,1.11,1.46,2.02s-.91,1.68-1.81,1.7c.29,1.14-.3,2.43-1.35,2.97.78,1.29-.11,3.07-1.46,3.77s-2.94.61-4.44.51l4.53,2.25c-1.51,2.35-3.79,4.2-6.41,5.18,1,1.62,4.38.73,4.74,2.6.1.49-.1.99-.36,1.42-1.12,1.87-3.46,2.91-5.59,2.5-.23.52.34,1.09.91,1.16s1.13-.15,1.7-.18c1.17-.06,2.32.79,2.61,1.92s-.32,2.43-1.37,2.94c-.54.26-1.15.33-1.67.63-.63.37-1.01,1.03-1.44,1.61-1.33,1.8-3.4,3.03-5.61,3.35,1.05.4,2.1.8,3.14,1.19-.64,1.06-.89,2.35-.71,3.57-1.9.72-3.81,1.45-5.71,2.17,2.39.02,4.79.38,7.08,1.06.81.24,1.8,1.09,1.23,1.72-.15.17-.38.25-.6.32-1.93.61-3.86,1.23-5.78,1.84,2.59,1.24,5.37,2.07,8.22,2.45-3.7,2.84-7.4,5.67-11.1,8.51-.82.63-1.65,1.92-.81,2.51,3.33-2.25,7.56-3.13,11.52-2.41-1,1.12-1.07,2.97-.15,4.16.79-.06,1.58-.13,2.37-.19-2.17,1.61-4.81,2.57-7.51,2.73.63.82-.7,1.77-1.73,1.79s-2.42.07-2.64,1.08c-.11.51.19,1.04.07,1.55-.17.72-1.01,1-1.73,1.15-1.74.38-3.48.76-5.22,1.14-.45.1-.94.22-1.24.58-.37.46-.3,1.12-.2,1.7.43,2.59,1.13,5.56,3.5,6.68.7.33,1.51.47,2.07,1s.61,1.68-.13,1.91c-.63,1.25-2.36,1.94-3.75,2.14s-3.01,1.53-2.24,2.71c.19.29.51.51.59.85.19.83-1.05,1.13-1.9,1.03s-2.09.23-1.88,1.05c.13.49.71.66,1.15.91,2.07,1.18,1.13,4.67,2.82,6.34.81.79,2.02.97,3.01,1.53s1.72,1.98.93,2.78c-.47.48-1.24.46-1.91.41-4.62-.33-9.24-.67-13.86-1,.67,1.37,2.13,2.32,3.65,2.37-.43.52-.86,1.03-1.28,1.55.59,1.15,2.17,1.23,3.46,1.2s2.91.24,3.28,1.48c.32,1.07-.57,2.12-1.49,2.74s-2.02,1.14-2.51,2.14c-.2.41-.28.87-.53,1.25-.4.6-1.13.86-1.78,1.16-1.8.83-3.33,2.23-4.31,3.95.78.27,1.56.54,2.25.98,1.73,1.11,2.62,3.13,4.09,4.57s4.27,2.03,5.34.28c.21-.34.34-.76.67-.98.52-.36,1.22-.07,1.76.25,1.4.83,2.69,1.84,3.83,3-1.01.64-2.31.35-3.5.41s-2.61.92-2.33,2.08c.07.28.23.53.28.81.15.8-.62,1.45-1.29,1.9-1.78,1.2-3.57,2.4-5.35,3.6-1.69,1.14-3.46,2.36-4.35,4.2-.15.3-.27.63-.26.97.05.98,1.12,1.51,2.01,1.92s1.86,1.27,1.52,2.18c-.13.34-.42.58-.69.81-1.38,1.15-2.75,2.3-4.13,3.45.92-.17,1.82.45,2.36,1.21s.83,1.67,1.28,2.48c1.32,2.37,4.12,3.82,6.81,3.53.66.67-.16,1.79-1.03,2.15s-1.97.56-2.34,1.43c1.94,1.67,4.72,2.3,7.19,1.63-.36,1.89.72,3.95,2.47,4.73-.32,3.18,2.68,5.59,5.36,7.33.48.31.99.64,1.56.64,1.27,0,2.15-1.51,3.42-1.49.86,0,1.65.75,2.48.54.62-.16.97-.78,1.42-1.23,1.29-1.29,3.74-1.05,4.76.46.64.95.8,2.24.13,3.17-.18.25-.42.49-.44.8-.04.6.7.91,1.01,1.42.39.64.04,1.44-.12,2.17-.24,1.05-.08,2.18.44,3.12.17.31.4.61.73.74.33.13.71.06,1.05-.03.96-.26,1.88-.71,2.67-1.31.34-.26.68-.56,1.11-.62.96-.15,1.84.96,2.77.69.36-.1.8-.38,1.05-.11.15.17.1.44.13.67.06.44.46.73.83.98,1.02.68,2.03,1.35,3.05,2.03"/>
        <path class="cls-2" d="m172.76,247.35v-26.54l5.37-11.61L175.31,1.22c.09-.36.18-.72.27-1.08-.43,1.42.54,2.88,1.64,3.88s2.42,1.85,3.05,3.19c-.36.13-.71.27-1.07.4-.07.82.95,1.51,1.69,1.14-.48,1.37.74,2.7,1.12,4.11.2.76.15,1.57.29,2.34.29,1.67,1.51,3.15,3.1,3.76-1.41.49-1.3,2.5-.91,3.94.63,2.34,1.26,4.69,1.89,7.03.17.64.35,1.29.73,1.83.78,1.11,2.22,1.48,3.49,1.96s2.63,1.33,2.76,2.68c-1.86-.04-3.72-.09-5.58-.13,1.46,2.61,2.3,5.56,2.44,8.54.04.88.05,1.83.6,2.51.35.43.86.69,1.36.93,1.72.84,3.45,1.67,5.17,2.51-1.52-.34-3.64-.37-4.08,1.13-.27.94.39,1.91,1.18,2.5s1.73.96,2.42,1.66,1.02,1.92.36,2.64c-.74.81-2.49.83-2.46,1.93,0,.29.17.55.34.78.66.87,1.63,1.49,2.7,1.73.58.13,1.18.15,1.71.41s.95.88.74,1.43c-.25.64-1.1.73-1.78.71-.9-.02-1.8-.04-2.7-.05-.79-.02-1.66,0-2.24.52-.51.45-.67,1.17-.8,1.84-.34,1.72-.78,3.31-1.12,5.04.21-.18.42-.35.62-.53,1.64,2.09,4.82,1.64,7.47,1.84,1.35.1,3,.8,2.94,2.15-.03.63-.45,1.18-.48,1.81-.04.84.65,1.58,1.45,1.86s1.66.22,2.5.15c-.88,2.81-3.7,4.9-6.64,4.94-.79,0-1.6-.11-2.34.15s-1.38,1.09-1.07,1.81c.11.27.34.48.57.65,1.41,1.07,3.3,1.21,5.04,1.53s3.65,1.01,4.39,2.63c-3.66-.3-7.35-.19-10.99.33-.68.1-1.49.33-1.65,1-.2.85.86,1.43,1.72,1.59,2.24.44,4.82.47,6.36,2.15.88.96,1.25,2.29,2.12,3.25,2.08,2.29,5.93,1.51,8.61,3.06-1.27.38-2.59.64-3.91.77,1.01,1.24,2.49,2.08,4.07,2.33-.86-.2-1.48.74-2.16,1.31-1.62,1.35-4.07.56-5.94-.42s-4.05-2.11-5.98-1.24c1.06,2.55,3.41,4.53,6.1,5.14.9.2,2.06.48,2.16,1.4.04.35-.11.7-.33.97-.87,1.12-2.52,1.14-3.94,1.14s-3.12.25-3.72,1.54c-.27.58-.24,1.25-.11,1.88.59,2.72,3.33,4.8,6.11,4.63,1.07-.06,2.11-.42,3.18-.37,1.11.05,2.21.54,3.3.33.84-.17,1.6-.74,2.46-.71,1.55.06,2.29,2.25,1.46,3.56s-2.34,2.2-3.89,2.1c.13,1.27,1.81,1.57,2.84,2.34,1.39,1.04,1.55,3,2.02,4.67s2.01,3.47,3.63,2.83c.47,1.02-1.12,1.89-2.17,1.48s-1.76-1.41-2.78-1.88c-1.23-.57-2.65-.27-4-.32s-2.94-.75-3.05-2.09c-1.48.81-1.95,2.86-1.34,4.43s2.05,2.69,3.58,3.38c.53.24,1.09.44,1.52.83.37.33.62.77.94,1.15,1.27,1.5,3.42,1.78,5.35,2.11s4.1,1.07,4.81,2.9c-.7,1.17-2.48.57-3.64-.15s-2.99-1.25-3.61-.05c.31,1.26.61,2.52.92,3.78.1.43.23.9.6,1.14.91.61,2.35-.66,3.15.09-.4,1.59-2.83,1.47-3.93,2.68-1.3,1.42-.15,3.74-.63,5.6,1.15.62,2.68.46,3.68-.39.4.25.8.49,1.2.74-1.25,3.15-2.77,6.4-5.56,8.32-1.95,1.34-4.64,2.25-5.16,4.55,1.07,1.59,3.48,1.59,5.22.78s3.15-2.21,4.9-3.01c-.69,2.37-1.83,4.61-3.34,6.56-.51.66-1.07,1.31-1.31,2.11-.4,1.37.24,2.8.33,4.22s-.94,3.2-2.31,2.82c.33,3.34,2.13,6.51,4.83,8.5,1,.74,2.17,1.38,2.74,2.49.32.62.42,1.33.77,1.93,1.05,1.77,4.12,2.39,3.93,4.44-4.55-1.17-9.56-.45-13.6,1.95-1.18.71-2.42,1.58-3.79,1.44-.95-.1-1.8-.7-2.76-.78-1.58-.13-3.18,1.17-4.65.56-.91-.37-1.51-1.42-2.49-1.52-1.09-.11-1.93,1.1-1.88,2.2,0,0-1.15.06-.69.99s-.46,1.38-.46,1.38l-.92-.46-.46,1.85s-.82-1.03-1.1-.51c-1.49,2.69-4.53-4.16-6.8-6.24.18.54.36,1.08.54,1.61-1.27.96-.93,3.01.01,4.29s2.33,2.22,3.09,3.61c-2.4,0-4.08-2.25-5.45-4.21-1.37-1.97-3.33-4.1-5.69-3.7v37.91"/>
        <path class="cls-2" d="m172.76,247.11s-.02,1.14-.12,2.81c-.26,4.12-1.04,11.48-3.34,13.12h12.04c-.08.37-3.65-1.31-3.21-23.57"/>
        <path class="cls-2" d="m175.32,1.22c.22-.11,10.83,153.59,10.83,153.59l-8.01,54.39-1.38,11.65-4-.04s-4.15-9.23-5.08-9.69S175.31,1.22,175.31,1.22h.01Z"/>
      </g>
      <g>
        <path class="cls-2" d="m266.56,145.91c.58.11,1.21.26,1.53.7s-.05,1.19-.63,1.08c.82,1.46,2.23,2.67,3.94,3.36-1.14.2-2.27.4-3.41.6-.15.66.69,1.13,1.4,1.4,1.34.51,2.67,1.02,4.01,1.53-1.21.55-2.18,1.5-2.64,2.62,1.61,1.52,3.58,2.76,5.76,3.62-1.27.89-1.76,2.53-1.14,3.84-.62.12-1.09.68-1.03,1.23s.64,1.02,1.28,1.04c-.2.69.21,1.48.95,1.81-.55.79.08,1.87,1.03,2.29s2.07.37,3.13.31c-1.06.46-2.13.91-3.19,1.37,1.06,1.43,2.67,2.56,4.51,3.15-.7.99-3.08.45-3.34,1.58-.07.3.07.6.25.86.79,1.14,2.43,1.77,3.94,1.52.16.32-.24.66-.64.71s-.79-.09-1.2-.11c-.82-.04-1.64.48-1.84,1.17s.22,1.48.97,1.79c.38.16.81.2,1.17.38.44.22.71.63,1.01.98.94,1.09,2.4,1.84,3.95,2.04-.74.24-1.48.48-2.21.73.45.65.63,1.43.5,2.17,1.34.44,2.68.88,4.02,1.32-1.69,0-3.37.23-4.99.64-.57.15-1.27.67-.87,1.05.11.1.27.15.42.19,1.36.37,2.72.75,4.07,1.12-1.82.76-3.78,1.26-5.79,1.49,2.61,1.73,5.21,3.45,7.82,5.18.58.38,1.16,1.17.57,1.53-2.35-1.37-5.32-1.91-8.11-1.47.7.68.75,1.81.1,2.53-.56-.04-1.11-.08-1.67-.12,1.53.98,3.39,1.56,5.29,1.66-.44.5.49,1.08,1.22,1.09s1.71.04,1.86.66c.08.31-.13.63-.05.94.12.44.71.61,1.22.7,1.23.23,2.45.46,3.68.7.32.06.67.13.87.35.26.28.21.68.14,1.03-.3,1.57-.8,3.39-2.47,4.07-.49.2-1.06.29-1.46.61s-.43,1.02.09,1.16c.44.76,1.66,1.18,2.64,1.3s2.12.93,1.58,1.65c-.13.18-.36.31-.41.52-.13.5.74.69,1.34.63s1.47.14,1.32.64c-.09.3-.5.4-.81.55-1.45.72-.79,2.85-1.99,3.86-.57.48-1.43.59-2.12.93s-1.21,1.2-.65,1.69c.33.29.87.28,1.34.25,3.25-.2,6.51-.41,9.76-.61-.47.84-1.5,1.41-2.57,1.45.3.32.6.63.9.95-.41.7-1.53.75-2.44.73s-2.05.15-2.31.9c-.22.65.4,1.29,1.05,1.67s1.43.69,1.77,1.3c.14.25.19.53.37.76.28.37.79.53,1.26.71,1.27.5,2.35,1.36,3.04,2.41-.55.16-1.1.33-1.58.6-1.22.68-1.85,1.91-2.88,2.78s-3.01,1.24-3.76.17c-.15-.21-.24-.46-.47-.6-.36-.22-.86-.04-1.24.15-.99.5-1.9,1.12-2.7,1.83.71.39,1.63.21,2.47.25s1.84.56,1.64,1.27c-.05.17-.16.32-.2.49-.1.49.43.88.91,1.16,1.26.73,2.51,1.46,3.77,2.19,1.19.69,2.44,1.44,3.07,2.55.1.19.19.39.18.59-.03.6-.79.92-1.42,1.17s-1.31.77-1.07,1.33c.09.21.29.36.49.5.97.7,1.94,1.4,2.91,2.1-.65-.1-1.28.27-1.66.73s-.58,1.01-.9,1.51c-.93,1.44-2.9,2.33-4.8,2.15-.47.41.11,1.09.73,1.31s1.39.34,1.65.87c-1.37,1.02-3.32,1.4-5.06.99.25,1.15-.51,2.4-1.74,2.88.23,1.93-1.89,3.4-3.77,4.47-.34.19-.7.39-1.1.39-.89,0-1.52-.92-2.41-.91-.6,0-1.16.46-1.75.33-.43-.1-.69-.47-1-.75-.91-.78-2.63-.64-3.35.28-.45.58-.56,1.36-.09,1.93.13.15.3.3.31.49.03.36-.49.55-.71.87-.27.39-.03.88.09,1.32.17.64.06,1.33-.31,1.9-.12.19-.28.37-.51.45-.23.08-.5.04-.74-.02-.68-.16-1.32-.43-1.88-.8-.24-.16-.48-.34-.78-.38-.68-.09-1.29.58-1.95.42-.25-.06-.56-.23-.74-.06-.11.1-.07.27-.09.41-.04.27-.33.45-.59.6-.72.41-1.43.82-2.15,1.24"/>
        <path class="cls-2" d="m264.66,295.55v-23.09c-1.66-.25-3.05,1.05-4.01,2.25s-2.15,2.57-3.84,2.57c.54-.85,1.52-1.42,2.18-2.2s.9-2.03,0-2.61c.13-.33.25-.66.38-.98-1.6,1.27-3.74,5.44-4.79,3.8-.2-.31-.77.31-.77.31l-.33-1.12-.65.28s-.65-.28-.33-.84-.49-.6-.49-.6c.04-.67-.55-1.41-1.32-1.34-.69.06-1.11.7-1.76.93-1.03.37-2.16-.42-3.28-.34-.67.05-1.27.41-1.94.47-.97.09-1.84-.45-2.67-.87-2.84-1.46-6.37-1.9-9.58-1.19-.13-1.25,2.03-1.62,2.77-2.7.25-.36.32-.8.55-1.18.4-.67,1.22-1.06,1.93-1.51,1.9-1.21,3.17-3.14,3.4-5.18-.97.23-1.69-.85-1.63-1.72s.52-1.74.23-2.57c-.17-.49-.56-.88-.92-1.28-1.06-1.19-1.86-2.55-2.35-4,1.23.49,2.22,1.34,3.45,1.83s2.92.49,3.68-.48c-.36-1.4-2.26-1.96-3.63-2.77-1.96-1.17-3.03-3.15-3.91-5.07.28-.15.56-.3.84-.45.7.52,1.78.62,2.59.24-.34-1.13.47-2.54-.45-3.41-.78-.74-2.49-.66-2.77-1.63.56-.46,1.58.32,2.22-.06.26-.15.35-.43.42-.69.22-.77.43-1.54.65-2.3-.44-.74-1.73-.41-2.55.03s-2.07.8-2.56.09c.49-1.11,2.02-1.56,3.38-1.77s2.88-.38,3.77-1.29c.23-.23.4-.5.66-.7.3-.24.7-.36,1.07-.5,1.08-.42,2.1-1.1,2.52-2.06s.1-2.2-.94-2.7c-.08.82-1.2,1.24-2.15,1.27s-1.96-.15-2.82.2c-.72.29-1.22.9-1.96,1.15s-1.86-.28-1.53-.9c1.14.39,2.22-.71,2.56-1.73s.45-2.21,1.42-2.85c.72-.46,1.91-.65,2-1.42-1.09.06-2.15-.48-2.74-1.28s-.07-2.13,1.03-2.17c.6-.02,1.14.33,1.73.43.77.13,1.54-.17,2.32-.2.75-.03,1.49.18,2.24.22,1.96.1,3.89-1.17,4.3-2.82.09-.38.11-.79-.08-1.14-.42-.78-1.62-.94-2.62-.94s-2.16,0-2.78-.69c-.15-.17-.26-.38-.23-.59.07-.56.89-.73,1.52-.85,1.9-.37,3.55-1.57,4.3-3.13-1.36-.53-2.89.16-4.21.75s-3.04,1.08-4.19.25c-.48-.34-.92-.92-1.52-.8,1.11-.15,2.16-.67,2.87-1.42-.93-.08-1.86-.23-2.76-.47,1.88-.95,4.6-.47,6.06-1.86.62-.58.87-1.4,1.49-1.98,1.09-1.02,2.9-1.04,4.48-1.31.61-.1,1.35-.45,1.21-.97-.11-.41-.68-.55-1.16-.61-2.56-.31-5.16-.38-7.74-.2.52-.98,1.86-1.41,3.09-1.6s2.56-.28,3.55-.93c.16-.11.32-.23.4-.4.22-.44-.23-.95-.75-1.1s-1.1-.08-1.65-.09c-2.08-.02-4.06-1.29-4.68-3.01.59.04,1.2.08,1.76-.09s1.05-.62,1.02-1.13c-.02-.38-.32-.72-.34-1.1-.04-.82,1.12-1.25,2.07-1.31,1.87-.12,4.11.15,5.26-1.12.15.11.29.22.44.32-.24-1.05-.55-2.02-.79-3.07-.09-.41-.2-.85-.56-1.12-.41-.32-1.03-.33-1.58-.32-.63,0-1.27.02-1.9.03-.48,0-1.08-.05-1.25-.43-.15-.33.15-.71.52-.87s.8-.17,1.21-.25c.75-.14,1.43-.52,1.9-1.05.12-.14.24-.3.24-.48.02-.67-1.21-.68-1.73-1.18-.47-.44-.23-1.18.25-1.61s1.15-.66,1.71-1.01,1.02-.95.83-1.52c-.31-.91-1.8-.9-2.87-.69,1.21-.51,2.43-1.02,3.64-1.53.35-.15.71-.3.96-.57.39-.42.39-1,.42-1.53.1-1.82.69-3.61,1.72-5.2-1.31.03-2.62.05-3.93.08.09-.82,1.05-1.34,1.94-1.63s1.9-.52,2.46-1.19c.27-.33.39-.73.52-1.11.44-1.43.89-2.86,1.33-4.28.27-.88.35-2.1-.64-2.4,1.12-.37,1.98-1.27,2.18-2.29.1-.47.06-.96.2-1.43.26-.86,1.12-1.67.79-2.5.52.22,1.23-.2,1.19-.7l-.75-.24c.44-.82,1.37-1.34,2.15-1.94s1.46-1.5,1.16-2.36l.19.66-1.98,126.65,3.78,7.07v25.23"/>
        <path class="cls-2" d="m268.44,304.09s.01,1.96.09,4.85c.18,7.11.73,19.83,2.35,22.67h-8.48c.06.63,2.57-2.25,2.26-40.71"/>
        <path class="cls-2" d="m266.64,145.82c-.15-.07-7.63,93.53-7.63,93.53l5.64,33.12.97,7.09,2.81-.02s2.93-5.62,3.58-5.9-5.38-127.82-5.38-127.82h.01Z"/>
      </g>
      <g>
        <path class="cls-2" d="m36.53,99.95c-.54.16-1.14.38-1.44,1s.05,1.69.59,1.54c-.77,2.09-2.1,3.81-3.71,4.8,1.07.29,2.14.57,3.21.86.14.94-.65,1.61-1.32,2-1.26.73-2.52,1.46-3.78,2.19,1.14.78,2.05,2.15,2.48,3.74-1.52,2.18-3.38,3.95-5.42,5.18,1.2,1.27,1.66,3.62,1.07,5.49.59.17,1.03.97.97,1.75-.06.78-.6,1.46-1.2,1.48.19.99-.2,2.12-.89,2.58.52,1.12-.08,2.67-.97,3.28s-1.95.53-2.95.44c1,.65,2,1.31,3,1.96-1,2.05-2.52,3.65-4.25,4.51.66,1.41,2.9.64,3.15,2.26.06.43-.07.86-.24,1.24-.74,1.62-2.29,2.53-3.71,2.17-.15.45.23.95.6,1.01s.75-.13,1.13-.15c.78-.05,1.54.69,1.73,1.68s-.21,2.12-.91,2.56c-.36.22-.76.28-1.1.55-.41.32-.67.9-.95,1.4-.88,1.56-2.26,2.64-3.72,2.91.7.35,1.39.69,2.09,1.04-.42.92-.59,2.04-.47,3.11-1.26.63-2.53,1.26-3.79,1.89,1.59.02,3.18.33,4.7.92.54.21,1.19.95.82,1.5-.1.15-.25.21-.4.27-1.28.53-2.56,1.07-3.84,1.6,1.72,1.08,3.56,1.8,5.45,2.14-2.46,2.47-4.91,4.94-7.37,7.4-.54.55-1.1,1.67-.53,2.18,2.21-1.96,5.01-2.73,7.64-2.1-.66.98-.71,2.58-.1,3.62.52-.06,1.05-.11,1.57-.17-1.44,1.4-3.19,2.23-4.98,2.38.42.71-.47,1.54-1.15,1.56s-1.61.06-1.75.94c-.07.44.12.91.05,1.35-.11.62-.67.87-1.15,1-1.15.33-2.31.66-3.46.99-.3.09-.63.19-.82.5-.25.4-.2.97-.13,1.48.28,2.25.75,4.84,2.32,5.81.46.29,1,.41,1.37.87s.4,1.46-.08,1.66c-.41,1.09-1.57,1.69-2.49,1.86s-1.99,1.33-1.49,2.35c.13.25.34.44.39.74.13.72-.7.98-1.26.9s-1.39.2-1.24.91c.08.43.47.57.76.79,1.37,1.03.75,4.07,1.87,5.52.54.69,1.34.85,2,1.33s1.14,1.72.61,2.42c-.32.41-.82.4-1.27.36-3.06-.29-6.13-.58-9.19-.87.44,1.19,1.41,2.02,2.42,2.07-.28.45-.57.9-.85,1.35.39,1,1.44,1.07,2.3,1.05s1.93.21,2.17,1.29c.21.93-.38,1.84-.99,2.38s-1.34.99-1.66,1.86c-.13.36-.18.76-.35,1.09-.26.52-.75.75-1.18,1.01-1.19.72-2.21,1.94-2.86,3.44.51.23,1.03.47,1.49.85,1.15.97,1.74,2.73,2.71,3.98s2.84,1.77,3.54.24c.14-.3.22-.66.44-.86.34-.31.81-.06,1.17.22.93.72,1.79,1.6,2.54,2.62-.67.56-1.53.3-2.32.35s-1.73.8-1.54,1.81c.05.24.15.46.19.7.1.7-.41,1.26-.86,1.66-1.18,1.04-2.37,2.09-3.55,3.13-1.12.99-2.3,2.05-2.89,3.65-.1.27-.18.55-.17.85.03.85.75,1.31,1.33,1.67s1.24,1.1,1.01,1.9c-.08.29-.28.51-.46.71-.91,1-1.83,2-2.74,3,.61-.15,1.21.39,1.56,1.05s.55,1.45.85,2.16c.87,2.06,2.73,3.32,4.52,3.07.44.59-.11,1.56-.69,1.87s-1.31.49-1.55,1.25c1.29,1.45,3.13,2,4.77,1.42-.24,1.64.48,3.43,1.64,4.12-.22,2.76,1.78,4.86,3.55,6.38.32.27.66.55,1.04.56.84.01,1.43-1.31,2.27-1.3.57.01,1.09.66,1.64.47.41-.14.65-.68.94-1.07.85-1.12,2.48-.91,3.15.4.42.83.53,1.95.09,2.76-.12.22-.28.43-.29.69-.03.52.47.79.67,1.24.26.55.03,1.25-.08,1.88-.16.91-.06,1.9.29,2.72.11.27.26.53.48.65.22.11.47.06.7-.02.64-.23,1.24-.62,1.77-1.14.23-.23.45-.49.73-.54.64-.13,1.22.83,1.84.6.24-.09.53-.34.69-.09.1.15.06.38.08.58.04.38.31.64.55.85.67.59,1.35,1.18,2.02,1.77"/>
        <path class="cls-2" d="m34.76,314.02v-23.1l3.56-10.1-1.87-181c.06-.31.12-.63.18-.94-.29,1.24.36,2.51,1.09,3.38s1.61,1.61,2.02,2.78c-.24.12-.47.23-.71.35-.04.71.63,1.31,1.12.99-.32,1.19.49,2.35.74,3.58.13.66.1,1.36.19,2.04.19,1.46,1,2.74,2.06,3.27-.94.42-.86,2.17-.61,3.43.42,2.04.84,4.08,1.26,6.12.11.56.23,1.12.49,1.59.52.96,1.47,1.29,2.31,1.7s1.75,1.16,1.83,2.33c-1.23-.04-2.47-.07-3.7-.11.97,2.27,1.53,4.84,1.62,7.44.03.76.03,1.59.4,2.19.23.38.57.6.9.81,1.14.73,2.29,1.46,3.43,2.18-1.01-.3-2.41-.32-2.7.99-.18.82.26,1.66.78,2.17s1.15.84,1.61,1.45.68,1.67.24,2.3c-.49.7-1.65.72-1.63,1.68,0,.25.11.48.23.68.44.75,1.08,1.3,1.79,1.5.38.11.79.13,1.14.36s.63.77.49,1.24c-.16.55-.73.63-1.18.62-.6-.02-1.2-.03-1.79-.05-.52,0-1.1,0-1.49.45-.34.4-.44,1.02-.53,1.6-.22,1.5-.52,2.88-.74,4.38.14-.15.28-.31.41-.46,1.09,1.82,3.2,1.43,4.96,1.6.89.08,1.99.7,1.95,1.87-.02.54-.3,1.03-.32,1.57-.03.73.43,1.37.96,1.62s1.1.19,1.66.13c-.59,2.45-2.45,4.27-4.41,4.3-.52,0-1.06-.1-1.56.13s-.91.95-.71,1.58c.08.23.22.41.38.57.94.93,2.19,1.06,3.34,1.33s2.42.88,2.91,2.29c-2.43-.26-4.88-.17-7.29.28-.45.08-.99.29-1.09.87-.13.74.57,1.24,1.14,1.39,1.49.38,3.19.41,4.22,1.87.58.83.83,2,1.41,2.83,1.38,1.99,3.94,1.31,5.71,2.66-.85.33-1.72.55-2.59.67.67,1.08,1.65,1.81,2.7,2.03-.57-.18-.98.65-1.43,1.14-1.08,1.18-2.7.49-3.94-.36s-2.69-1.83-3.96-1.08c.7,2.22,2.26,3.94,4.05,4.47.6.18,1.37.42,1.43,1.22.03.3-.07.61-.22.85-.58.98-1.67.99-2.61.99s-2.07.22-2.46,1.34c-.18.5-.16,1.09-.07,1.63.39,2.37,2.21,4.18,4.05,4.03.71-.06,1.4-.36,2.11-.32.74.05,1.46.47,2.19.29.56-.14,1.06-.65,1.63-.62,1.03.05,1.52,1.96.97,3.09s-1.55,1.91-2.58,1.82c.09,1.11,1.2,1.37,1.88,2.03.92.9,1.03,2.61,1.34,4.07s1.34,3.02,2.41,2.47c.31.89-.74,1.64-1.44,1.29s-1.17-1.23-1.84-1.64c-.81-.49-1.76-.24-2.66-.28s-1.95-.65-2.02-1.82c-.98.7-1.29,2.49-.89,3.85s1.36,2.34,2.38,2.94c.35.21.72.38,1.01.72.24.29.41.67.62,1,.84,1.3,2.27,1.55,3.55,1.84s2.72.93,3.19,2.52c-.46,1.02-1.65.49-2.41-.13s-1.98-1.09-2.4-.04c.2,1.1.41,2.2.61,3.29.07.37.16.78.4.99.6.53,1.56-.58,2.09.08-.26,1.38-1.87,1.28-2.61,2.33-.86,1.24-.1,3.25-.42,4.87.76.54,1.78.4,2.44-.34.26.22.53.43.79.65-.83,2.74-1.84,5.57-3.69,7.24-1.29,1.17-3.08,1.96-3.42,3.96.71,1.38,2.31,1.39,3.47.68s2.09-1.92,3.25-2.62c-.46,2.06-1.22,4.01-2.21,5.71-.34.57-.71,1.14-.87,1.84-.27,1.19.16,2.44.22,3.67s-.62,2.78-1.53,2.45c.22,2.91,1.42,5.66,3.21,7.4.66.64,1.44,1.2,1.82,2.16.21.54.28,1.16.51,1.68.7,1.54,2.73,2.08,2.61,3.86-3.02-1.02-6.34-.4-9.02,1.7-.79.61-1.61,1.38-2.52,1.25-.63-.09-1.2-.61-1.83-.68-1.05-.11-2.11,1.02-3.09.49-.61-.33-1-1.24-1.65-1.32-.72-.1-1.28.96-1.24,1.91,0,0-.77.05-.46.86s-.31,1.21-.31,1.21l-.61-.4-.31,1.61s-.54-.89-.73-.45c-.99,2.34-3.01-3.62-4.51-5.43l.36,1.41c-.84.84-.62,2.62,0,3.74.62,1.11,1.55,1.93,2.05,3.14-1.59,0-2.71-1.95-3.62-3.67-.91-1.71-2.21-3.57-3.78-3.22v32.99"/>
        <path class="cls-2" d="m34.76,320.09s-.01,1.92-.08,4.75c-.17,6.96-.69,19.42-2.21,22.2h7.99c-.05.62-2.42-2.21-2.13-39.86"/>
        <path class="cls-2" d="m36.46,99.82c.14-.1,7.19,133.66,7.19,133.66l-5.32,47.34-.91,10.14-2.65-.03s-2.76-8.03-3.37-8.44,5.06-182.67,5.06-182.67h0Z"/>
      </g>
      <g>
        <path class="cls-2" d="m99.29,142.98c.39.09.82.22,1.03.58s-.03.98-.42.89c.55,1.21,1.5,2.21,2.64,2.78-.76.17-1.53.33-2.29.5-.1.54.47.93.94,1.16.9.42,1.8.85,2.69,1.27-.81.45-1.46,1.25-1.77,2.17,1.08,1.26,2.41,2.29,3.86,3-.86.74-1.18,2.1-.76,3.19-.42.1-.73.56-.69,1.02s.43.85.86.86c-.14.57.14,1.23.64,1.5-.37.65.05,1.55.69,1.9s1.39.31,2.1.26c-.71.38-1.43.76-2.14,1.14.71,1.19,1.79,2.12,3.03,2.61-.47.82-2.07.37-2.24,1.31-.05.25.05.5.17.72.53.94,1.63,1.47,2.64,1.26.11.26-.16.55-.43.59s-.53-.07-.8-.09c-.55-.03-1.1.4-1.24.97s.15,1.23.65,1.49c.25.13.55.16.79.32.3.19.48.52.68.81.63.91,1.61,1.53,2.65,1.69-.5.2-.99.4-1.49.6.3.54.42,1.18.33,1.8.9.37,1.8.73,2.7,1.1-1.13,0-2.26.19-3.35.53-.39.12-.85.55-.58.87.07.09.18.12.28.16.91.31,1.82.62,2.73.93-1.22.63-2.54,1.05-3.88,1.24,1.75,1.43,3.5,2.86,5.25,4.29.39.32.78.97.38,1.26-1.58-1.14-3.57-1.58-5.44-1.22.47.57.5,1.5.07,2.1-.37-.03-.75-.07-1.12-.1,1.03.81,2.28,1.3,3.55,1.38-.3.41.33.89.82.9s1.14.04,1.25.55c.05.26-.09.53-.03.78.08.36.48.5.82.58.82.19,1.64.38,2.47.58.21.05.45.11.59.29.18.23.14.56.09.86-.2,1.31-.54,2.81-1.66,3.37-.33.17-.71.24-.98.51s-.29.85.06.96c.3.63,1.12.98,1.77,1.08s1.42.77,1.06,1.37c-.09.15-.24.26-.28.43-.09.42.5.57.9.52s.99.11.89.53c-.06.25-.34.33-.54.46-.98.6-.53,2.36-1.33,3.2-.38.4-.96.49-1.42.77s-.82,1-.44,1.4c.22.24.59.23.9.21,2.18-.17,4.37-.34,6.55-.5-.32.69-1.01,1.17-1.73,1.2.2.26.4.52.61.78-.28.58-1.02.62-1.64.61s-1.38.12-1.55.75c-.15.54.27,1.07.71,1.38s.96.57,1.19,1.08c.09.21.13.44.25.63.19.3.53.44.84.59.85.42,1.58,1.13,2.04,1.99-.37.13-.74.27-1.06.5-.82.56-1.24,1.58-1.93,2.31s-2.02,1.03-2.53.14c-.1-.17-.16-.38-.32-.5-.24-.18-.58-.04-.83.13-.66.42-1.27.93-1.81,1.52.48.32,1.09.18,1.66.21s1.24.47,1.1,1.05c-.03.14-.11.27-.13.41-.07.4.29.73.61.96.84.61,1.69,1.21,2.53,1.82.8.57,1.64,1.19,2.06,2.12.07.15.13.32.12.49-.02.49-.53.76-.95.97s-.88.64-.72,1.1c.06.17.2.29.33.41.65.58,1.3,1.16,1.95,1.74-.43-.09-.86.22-1.11.61s-.39.84-.61,1.25c-.62,1.2-1.95,1.93-3.22,1.78-.31.34.08.91.49,1.09s.93.28,1.11.72c-.92.84-2.23,1.16-3.4.82.17.95-.34,1.99-1.17,2.39.15,1.6-1.27,2.82-2.53,3.7-.23.16-.47.32-.74.32-.6,0-1.02-.76-1.62-.75-.41,0-.78.38-1.17.27-.29-.08-.46-.39-.67-.62-.61-.65-1.77-.53-2.25.23-.3.48-.38,1.13-.06,1.6.09.13.2.25.21.4.02.3-.33.46-.48.72-.18.32-.02.73.06,1.09.11.53.04,1.1-.21,1.58-.08.16-.19.31-.34.38-.16.07-.33.03-.5,0-.46-.13-.89-.36-1.26-.66-.16-.13-.32-.28-.52-.32-.45-.08-.87.48-1.31.35-.17-.05-.38-.19-.49-.05-.07.09-.04.22-.06.34-.03.22-.22.37-.39.49-.48.34-.96.68-1.44,1.03"/>
        <path class="cls-2" d="m100.55,267.15v-13.39l-2.54-5.86,1.33-104.99-.13-.55c.2.72-.26,1.46-.78,1.96s-1.15.93-1.44,1.61c.17.07.34.13.5.2.03.41-.45.76-.8.58.23.69-.35,1.37-.53,2.07-.1.38-.07.79-.14,1.18-.14.84-.71,1.59-1.46,1.9.67.25.61,1.26.43,1.99-.3,1.18-.6,2.37-.89,3.55-.08.32-.17.65-.35.92-.37.56-1.05.75-1.65.99s-1.25.67-1.3,1.35c.88-.02,1.76-.04,2.64-.06-.69,1.32-1.09,2.81-1.15,4.31-.02.44-.02.92-.28,1.27-.16.22-.41.35-.64.47-.81.42-1.63.84-2.44,1.27.72-.17,1.72-.19,1.93.57.13.48-.19.97-.56,1.26s-.82.49-1.14.84-.48.97-.17,1.33c.35.41,1.18.42,1.16.97,0,.15-.08.28-.16.39-.31.44-.77.75-1.27.87-.27.06-.56.08-.81.21s-.45.44-.35.72c.12.32.52.37.84.36.43,0,.85-.02,1.28-.03.37,0,.78,0,1.06.26.24.23.32.59.38.93.16.87.37,1.67.53,2.54-.1-.09-.2-.18-.29-.27-.78,1.05-2.28.83-3.53.93-.64.05-1.42.41-1.39,1.09.01.32.21.6.23.91.02.42-.31.8-.68.94s-.79.11-1.18.07c.42,1.42,1.75,2.48,3.14,2.49.37,0,.76-.06,1.11.07s.65.55.51.92c-.05.14-.16.24-.27.33-.67.54-1.56.61-2.38.77s-1.73.51-2.08,1.33c1.73-.15,3.48-.1,5.19.16.32.05.71.17.78.5.09.43-.41.72-.81.81-1.06.22-2.28.24-3.01,1.09-.42.48-.59,1.16-1,1.64-.98,1.15-2.8.76-4.07,1.54.6.19,1.22.32,1.85.39-.48.62-1.18,1.05-1.93,1.18.4-.1.7.37,1.02.66.77.68,1.92.28,2.81-.21s1.92-1.06,2.82-.63c-.5,1.29-1.61,2.29-2.89,2.59-.42.1-.97.24-1.02.7-.02.18.05.35.15.49.41.57,1.19.57,1.86.57s1.47.13,1.76.78c.13.29.11.63.05.95-.28,1.37-1.57,2.42-2.89,2.34-.5-.03-1-.21-1.5-.18-.52.03-1.04.27-1.56.17-.4-.08-.76-.38-1.16-.36-.73.03-1.08,1.13-.69,1.8s1.1,1.11,1.84,1.06c-.06.64-.86.79-1.34,1.18-.66.52-.73,1.52-.96,2.36s-.95,1.75-1.72,1.43c-.22.52.53.95,1.02.75s.83-.71,1.31-.95c.58-.29,1.25-.14,1.89-.16s1.39-.38,1.44-1.06c.7.41.92,1.44.63,2.24s-.97,1.36-1.69,1.7c-.25.12-.51.22-.72.42-.17.17-.29.39-.44.58-.6.76-1.62.9-2.53,1.07s-1.94.54-2.27,1.46c.33.59,1.17.29,1.72-.07s1.41-.63,1.71-.02c-.14.64-.29,1.27-.43,1.91-.05.22-.11.45-.28.58-.43.31-1.11-.33-1.49.05.19.8,1.34.74,1.86,1.35.61.72.07,1.89.3,2.83-.54.31-1.27.23-1.74-.2-.19.12-.38.25-.57.37.59,1.59,1.31,3.23,2.63,4.2.92.68,2.2,1.13,2.44,2.3-.51.8-1.65.8-2.47.4s-1.49-1.11-2.31-1.52c.33,1.2.87,2.33,1.58,3.31.24.33.51.66.62,1.06.19.69-.11,1.41-.16,2.13s.44,1.61,1.09,1.42c-.16,1.69-1.01,3.28-2.28,4.29-.47.37-1.02.7-1.29,1.26-.15.31-.2.67-.37.97-.5.89-1.95,1.2-1.86,2.24,2.15-.59,4.52-.23,6.43.98.56.36,1.15.8,1.79.73.45-.05.85-.35,1.3-.39.75-.07,1.5.59,2.2.28.43-.19.72-.72,1.18-.77.51-.06.91.56.89,1.11,0,0,.55.03.33.5s.22.7.22.7l.44-.23.22.93s.39-.52.52-.26c.71,1.36,2.14-2.1,3.21-3.15-.08.27-.17.54-.25.82.6.48.44,1.52,0,2.17s-1.1,1.12-1.46,1.82c1.13,0,1.93-1.13,2.58-2.13.65-.99,1.58-2.07,2.69-1.87v19.13"/>
        <path class="cls-2" d="m100.55,267.03s0,.57.06,1.42c.12,2.08.49,5.8,1.58,6.63h-5.69c.04.18,1.73-.66,1.52-11.9"/>
        <path class="cls-2" d="m99.35,142.9c-.1-.06-5.12,77.53-5.12,77.53l3.79,27.46.65,5.88,1.89-.02s1.96-4.66,2.4-4.89-3.61-105.96-3.61-105.96h0Z"/>
      </g>
      <line class="cls-1" x1="34.76" y1="312.96" x2="34.76" y2="320.57"/>
      <polygon class="cls-2" points="36.62 312.75 35.22 312.75 35.22 318.36 36.62 312.75"/>
    </g>
    <path class="cls-2" d="m8.57,364.63h285.26c-10.26-33.63-154.71-224.21-285.26,0Z"/>
  </g>
</svg>