<?xml version="1.0" encoding="UTF-8"?>
<svg id="Layer_2" data-name="Layer 2" xmlns="http://www.w3.org/2000/svg" viewBox="0 0 345.99 346.04">
  <defs>
    <style>
      .cls-1, .cls-2 {
        stroke: #000;
        stroke-miterlimit: 10;
        stroke-width: 3px;
      }

      .cls-2 {
        fill: none;
      }
    </style>
  </defs>
  <g id="Layer_1-2">
    <line class="cls-2" x1="93.38" y1="139.79" x2="190.43" y2="82.41"/>
    <line class="cls-2" x1="99.84" y1="149.4" x2="195.79" y2="91.9"/>
    <path class="cls-1" d="m172.99,1.53c.38,0,.76.01,1.14.01-.34-.04-.72-.05-1.14-.01Z"/>
    <path class="cls-1" d="m83.76,26.55C103.84,14.29,126.64,6.04,151.04,2.93c-16.96,1.86-40.69,7.11-67.28,23.62Z"/>
    <path class="cls-1" d="m81.53,27.94h0c.17-.1.33-.21.5-.31-.17.11-.33.2-.5.31Z"/>
    <path class="cls-1" d="m102.21,329.33c13.68,6.42,27.18,10.26,39.89,12.43-14.09-2.56-27.58-6.85-40.25-12.63.12.06.23.14.36.2Z"/>
    <path class="cls-1" d="m218.35,338.46c-.59.16-1.18.33-1.78.49.66-.12,1.24-.29,1.78-.49Z"/>
    <path class="cls-1" d="m8.62,124.01s-.02.07-.06.2c.02-.07.04-.13.06-.2h0Z"/>
    <path class="cls-1" d="m18.84,248.26h0c-7.39-15.11-12.62-31.47-15.3-48.68,2.14,15.87,6.72,32.65,15.3,48.68Z"/>
    <path class="cls-1" d="m326.85,97.22c18.08,37.53,18.16,73.79,17.12,89.27.34-4.44.52-8.92.52-13.45,0-27.22-6.35-52.95-17.64-75.81h0Z"/>
    <path class="cls-1" d="m284.07,42.38h0c.65.56,1.31,1.11,1.95,1.68-.65-.56-1.28-1.12-1.94-1.68h-.01Z"/>
    <path class="cls-1" d="m142.1,341.76c10.02,1.82,20.34,2.78,30.89,2.78,15.06,0,29.67-1.94,43.58-5.59-.03,0-.05.01-.08.02-10.12,1.86-39.25,8.79-74.39,2.79h0Z"/>
    <g>
      <path class="cls-2" d="m216.04,133.16c-37.54,28.91-80.49,49.29-90.52,53.88l34.43,49.07c41.7-15.22,75.38-41.32,83.21-47.67l-27.12-55.29h0Z"/>
      <path class="cls-1" d="m330.49,195.53c4.1,15.82-7.32,26.84-17.47,33.25-4.4,2.78-10.01.72-12.08-4.05-1.36-3.12-5.25-5.6-14.45-5.2-13.85.6-14.01-12.36-11.94-22.76,1.24-6.26,7.63-9.93,13.78-8.22,10.24,2.85,23.77,1.13,17.46-32.02-6.67-35.04-18.7-31.24-25.58-25.43-2.78,2.35-2.89,6.55-.31,9.13,4.06,4.07,7.7,12.03-2.4,25.29-16,21-23.53-9-23.53-9,0,0,6.53-19-8.1-16.5-9.45,1.61-12.5-7.8-13.47-14.68-.53-3.72.59-7.47,3.02-10.34,4.06-4.82,9.23-13.62.74-20.52-7.67-6.24-3.32-12.84,1.07-16.95,2.82-2.63,6.94-3.32,10.48-1.77,10.72,4.7,32.5,13.43,6.26-5.74-33.42-24.42,29.68-27.64,30.1-27.66C254.41,17.13,216.07,1.8,174.14,1.53c9.75,1.06-12.64,29.99-12.64,29.99,0,0-22,0-19.59,15.17s-29.8,12.33-29.8,12.33c0,0,3.39-10.5-12.27-6.26-15.64,4.24-18.3-24.8-18.31-24.83C46.85,49.84,20.57,83.83,8.61,123.99c0,0,17.88-22.47,24.88-16.47s12.64-1.02,12.64-1.02c0,0,21.36-6.98,20.36-1.98s16,11,15,17-17,12-15,19-2,27-14,26-1,13-1,13c0,0,20,27-1,32s-8,11-8,11c0,0-2.46,14-9.73,9-7.26-5-13.91,16.69-13.92,16.73,17.43,35.65,46.85,64.36,83.02,80.87-1.6-.83-3-2.02-4.03-3.51-3.43-4.93-9.03-16.05,2.01-25.09,11.18-9.15,5.3-16.33,1.89-19.21-1.51-1.28-2.66-2.93-3.34-4.79-1.71-4.63-3.33-12.11,5.11-10,7.71,1.93,14.7-1.39,18.7-4.01,2.76-1.8,6.14-2.36,9.3-1.43,5.23,1.54,11.91,4.73,10.41,10.77-1.83,7.35,9.26,9.11,14.7,9.54,1.6.12,3.2-.11,4.71-.64,4.06-1.4,14.04-3.12,21.54,9.96,5.16,9,7.74,9.3,9.03,7.64,2.39-3.09,5.87-5.17,9.77-5.01,5.7.24,11.67,2.23,8.83,10.18-3.04,8.5-.17,11.47,2.55,12.49,2.76,1.04,5.1,2.93,6.46,5.54,2.92,5.62,5.95,14.27-1.14,16.89,66.06-18.08,116.22-74.66,124.82-144.13-.02-.03-19.68-25.78-12.68,1.21h-.01Zm-151.85-116.02l4.22,7.04-84.51,50.26-4.05-6.76,84.34-50.55h0Zm81.39,147.22c-22.31,26.16-65.41,42.19-73.45,45.02-.77.27-1.63,0-2.1-.67l-24.54-34.97c-.61.22-1.21.45-.27-.78l-34.79-48.75s-.78,1.11.64.46l-26.19-37.34-8.28,4.77-5.86-9.78,8.19-4.91,97.04-57.38,7.1-4.25,5.6,9.35-7.33,4.4,20.25,41.27c.71-.54,1.41-1.09.19-.23l26.74,55.51s1.33-.9.2.01l17.24,35.15c.5,1.03.37,2.27-.37,3.14v-.02Z"/>
    </g>
    <path class="cls-1" d="m151.04,2.93c9.85-1.08,17.44-1.03,21.95-1.4-7.44,0-14.76.48-21.95,1.4Z"/>
    <path class="cls-1" d="m82.03,27.63c.58-.37,1.15-.72,1.73-1.08-.58.35-1.15.72-1.73,1.08Z"/>
    <path class="cls-1" d="m8.42,124.69c.05-.16.09-.33.14-.49-.03.11-.08.29-.14.49Z"/>
    <path class="cls-1" d="m8.42,124.69c-4.5,15.33-6.92,31.55-6.92,48.34,0,9.03.7,17.9,2.05,26.55-5.07-37.52,3.46-69.89,4.88-74.89h-.01Z"/>
    <path class="cls-1" d="m343.18,194.33s.45-2.84.79-7.84c-.2,2.63-.47,5.25-.79,7.84h0Z"/>
    <path class="cls-1" d="m326.85,97.22c-8.75-18.17-21.73-36.62-40.84-53.17,16.87,14.79,30.81,32.84,40.84,53.17Z"/>
  </g>
</svg>