<?xml version="1.0" encoding="UTF-8"?>
<svg id="Layer_2" data-name="Layer 2" xmlns="http://www.w3.org/2000/svg" viewBox="0 0 287.88 290.92">
  <defs>
    <style>
      .cls-1 {
        isolation: isolate;
      }
    </style>
  </defs>
  <g id="Layer_2-2">
    <g>
      <path d="m111.94,74.02c-2.27,11.83-6.88,23.21-13.83,34.15-6.95,10.93-15.79,21-26.51,30.19s-22.64,17.11-35.76,23.73L2.94,142.66c19.32-12.16,34.15-23.96,44.48-35.42-2.69.27-5.93.03-9.72-.69-8.4-1.61-15.71-5.2-21.93-10.76-6.22-5.57-10.68-12.65-13.38-21.25-2.71-8.6-3.11-17.84-1.22-27.71,1.39-7.23,4-13.96,7.83-20.18s8.75-11.57,14.75-16.04c6-4.48,12.69-7.57,20.09-9.27,7.4-1.71,15.16-1.78,23.28-.23,9.09,1.74,16.93,5,23.51,9.78s11.67,10.56,15.26,17.34,5.89,14.08,6.89,21.89.72,15.78-.84,23.92v-.02Zm-36.32-12.23c1.18-6.18.45-11.69-2.19-16.53s-6.65-7.78-12.02-8.81c-4.41-.84-8.27-.35-11.58,1.47-3.31,1.83-5.93,4.29-7.84,7.4-1.92,3.11-3.17,6.21-3.76,9.3-1.37,7.16-.54,12.81,2.48,16.94,3.03,4.14,6.98,6.67,11.88,7.61,4.61.88,8.56.43,11.83-1.37,3.27-1.79,5.81-4.16,7.62-7.09,1.81-2.93,3.01-5.91,3.58-8.92h0Z"/>
      <path d="m230.54,43.49L50.51,277.45l-24.83-19.88L205.53,23.58l25.01,19.91h0Z"/>
    </g>
    <g class="cls-1">
      <g class="cls-1">
        <path d="m183.57,290.92v-146.96h29.92v122h74.39v24.96h-104.31Z"/>
      </g>
    </g>
  </g>
</svg>