<?xml version="1.0" encoding="UTF-8"?>
<svg id="Layer_2" data-name="Layer 2" xmlns="http://www.w3.org/2000/svg" viewBox="0 0 374.55 274">
  <defs>
    <style>
      .cls-1 {
        fill: none;
      }
    </style>
  </defs>
  <g id="Layer_1-2">
    <g id="Oakes_Cafe">
      <path d="m32.46,232.52h313.98c1.19,0,2.17,1.03,2.23,2.35.4,9.78-1.17,21.96-1.27,22.79-.82,6.57-9.99,16.34-21.5,16.34H47.52c-7.25,0-15.66-8.83-16.97-13.83-.42-1.6-1.46-15.48-.3-25.5.14-1.24,1.09-2.16,2.21-2.16h0Z"/>
      <path class="cls-1" d="m371.98,187.15c-1.4,1.16-3.14,2.08-4.93,2.97H6.63v-.06"/>
      <g>
        <path d="m342.87,118.14C301.31-43.83,53.93-35.83,27.66,121.09c-.46,2.75,2.58,9.07,5.1,9.07l304.47.55c3.87,0,6.7-8.44,5.64-12.57h0ZM159.62,21.99c-3.1,2.7-6.35,3.84-7.26,2.55-.91-1.29.86-4.52,3.96-7.22s6.35-3.84,7.26-2.55c.91,1.29-.86,4.52-3.96,7.22Zm32.84,1.46c-1.27.81-3.87-1.57-5.82-5.32-1.95-3.75-2.5-7.45-1.24-8.26,1.27-.81,3.87,1.57,5.82,5.32,1.95,3.75,2.5,7.45,1.24,8.26h0Zm29.59.42c-.64,1.43-3.94,1.05-7.37-.84s-5.69-4.58-5.06-6.01c.64-1.43,3.94-1.05,7.37.84s5.69,4.58,5.06,6.01Z"/>
        <path class="cls-1" d="m185.39,9.86c-1.27.81-.71,4.51,1.24,8.26s4.56,6.13,5.82,5.32.71-4.51-1.24-8.26c-1.95-3.75-4.56-6.13-5.82-5.32h0Z"/>
        <path class="cls-1" d="m216.99,17.85c-3.43-1.89-6.73-2.27-7.37-.84-.64,1.43,1.62,4.12,5.06,6.01s6.73,2.27,7.37.84c.64-1.43-1.62-4.12-5.06-6.01Z"/>
        <path class="cls-1" d="m156.32,17.31c-3.1,2.7-4.87,5.93-3.96,7.22.91,1.29,4.16.15,7.26-2.55,3.1-2.7,4.87-5.93,3.96-7.22-.91-1.29-4.16-.15-7.26,2.55Z"/>
      </g>
      <g>
        <path d="m366.72,175.27c-5.52-3.03-11.36-5.69-17.42-8.11-8.03-3.2-16.52-5.72-25.03-8.12-9.87-2.79-20.06-4.95-30.38-6.67-9.95-1.66-19.97-3.07-30.09-4.18-10.94-1.2-21.91-2.19-32.91-2.79-8.46-.46-16.98-.73-25.5-.82-20.42-.23-40.83.36-61.24.71-.38,0-.77.02-1.15.05-6.62.42-13.24.84-19.86,1.28-5.17.34-10.37.52-15.49,1.11-6.13.7-12.32,1.13-18.46,1.8-7.19.78-14.37,1.64-21.49,2.64-10.08,1.42-20.03,3.33-29.71,5.89-8.56,2.26-16.96,4.76-24.42,8.68-2.91,1.53-4.93,3.42-6.04,5.7l3.52,2.83h355.67Z"/>
        <path d="m12.64,198.28c8.54,4.72,18.46,7.5,28.52,9.96,4.36,1.07,8.88,1.84,13.3,2.78,7.73,1.64,15.69,2.41,23.48,3.81,4.54.82,9.27,1.05,13.9,1.6,4.4.52,8.9.82,13.36,1.16,5.16.39,10.33.77,15.5,1.06,7.85.44,15.67,1.33,23.52,1.52,9.05.22,18.09.59,27.14.69,20.79.23,41.58.15,62.35-.91,6.41-.33,12.77-.98,19.14-1.48,7.45-.58,14.86-1.53,22.25-2.49,8.29-1.08,16.47-2.43,24.61-3.94,9.37-1.74,18.6-3.83,27.58-6.46,4.63-1.36,9.38-2.57,13.81-4.21,7.69-2.85,15.51-5.6,22.41-9.43,1.13-.63,2.35-1.21,3.54-1.81H11.31l-3.77,3.11c.98,2,2.7,3.71,5.1,5.04h0Z"/>
        <path d="m371.84,178.24H14.75l5.54,4.46-5.39,4.46h357.08c1.13-.94,2.05-2.03,2.57-3.39v-2.34c0-.44-1.25-2.27-2.71-3.18h0Z"/>
        <path class="cls-1" d="m10.18,182.24l-3.57-4h8.14l-3.69-2.97h-4.41c.15-1.01.46-1.95.89-2.83h0l-7.54,11.06,7.54,9.75h.01c-.48-.98-.8-2.02-.91-3.12h4.67l3.59-2.97H6.6l3.58-4.91h0Z"/>
        <path class="cls-1" d="m11.06,175.27l-3.52-2.83c-.43.89-.74,1.83-.89,2.83,0,0,4.41,0,4.41,0Z"/>
        <path class="cls-1" d="m7.54,193.24l3.77-3.11h-4.67c.11,1.1.43,2.14.91,3.11h-.01Z"/>
        <polygon class="cls-1" points="14.75 178.24 6.61 178.24 10.18 182.24 6.6 187.15 14.9 187.15 20.29 182.7 14.75 178.24"/>
      </g>
    </g>
  </g>
</svg>