<?xml version="1.0" encoding="UTF-8"?>
<svg id="Layer_2" data-name="Layer 2" xmlns="http://www.w3.org/2000/svg" viewBox="0 0 386.28 234.17">
  <g id="Layer_1-2">
    <g id="Perk">
      <g>
        <path d="m0,0c11.22,312.12,322.71,312.12,328.12.65C207.66,19.15,119.26,21.06,0,0h0Zm96.94,103.66c-4.83,2.82-9.56,4.22-14.21,4.22-3.13,0-5.32-.69-6.57-2.08-1.25-1.38-1.88-3.55-1.88-6.5,0-3.57.85-5.36,2.55-5.36.45,0,1.38.18,2.81.53,1.79.45,3.66.67,5.63.67,4.91,0,8.91-1.39,12-4.16s4.62-6.34,4.62-10.72-1.68-8.02-5.03-10.65-7.75-3.95-13.2-3.95c-3.67,0-7.73.58-12.2,1.74-.27,5.9-.89,12.6-1.88,20.11-1.34,11.26-2.01,19.62-2.01,25.06,0,3.49.31,6.35.94,8.58.62,2.23,1.79,4.16,3.49,5.76,1.25,1.25,1.88,2.59,1.88,4.02,0,2.06-1.14,3.87-3.42,5.43s-5.16,2.35-8.65,2.35c-2.14,0-3.87-.6-5.16-1.81-1.3-1.21-1.94-3.69-1.94-7.44s.71-10.19,2.14-19.57c1.43-9.56,2.14-18.32,2.14-26.27,0-4.64-.22-8.58-.67-11.8-1.43.81-2.59,1.21-3.48,1.21-.81,0-1.39-.36-1.74-1.07-.36-.71-.54-1.83-.54-3.35,0-2.77.62-5.07,1.88-6.9,1.25-1.83,3.44-3.55,6.57-5.16,3.31-1.79,7.08-3.22,11.33-4.29,4.24-1.07,8.47-1.61,12.67-1.61,8.67,0,15.62,2.28,20.84,6.84s7.84,10.63,7.84,18.23c0,5.99-1.59,11.44-4.76,16.35-3.17,4.92-7.17,8.78-12,11.59h.01Zm30.63,19.1c2.73,2.5,6.23,3.75,10.52,3.75,2.59,0,5.25-.47,7.98-1.41,2.72-.94,5.07-2.21,7.04-3.82,1.25-1.07,2.41-1.61,3.49-1.61.89,0,1.63.29,2.21.87s.87,1.32.87,2.21c0,1.97-1.7,4.56-5.09,7.77-5.99,5.72-13.09,8.58-21.31,8.58-6.79,0-12.09-1.94-15.88-5.83-3.8-3.89-5.7-9.32-5.7-16.29,0-6.17,1.38-11.88,4.16-17.16,2.77-5.27,6.52-9.45,11.26-12.53,4.73-3.08,9.87-4.62,15.41-4.62s9.65,1.32,12.87,3.95c3.22,2.64,4.83,6.14,4.83,10.52,0,3.49-1.07,6.7-3.22,9.65s-5.03,5.29-8.65,7.04-7.57,2.61-11.86,2.61c-2.5,0-4.92-.31-7.24-.94-2.32-.62-4.29-1.52-5.9-2.68.09,4.11,1.5,7.42,4.22,9.92v.02Zm81.9-26.61c-1.57,2.1-3.15,3.15-4.76,3.15-.8,0-1.43-.27-1.88-.8-1.16-1.43-2.59-2.14-4.29-2.14-2.68,0-5.01,1.74-6.97,5.23-1.97,3.49-2.99,8.13-3.08,13.94l.27,11.93c0,3.4-.94,6.14-2.82,8.24s-4.34,3.15-7.37,3.15c-3.4,0-4.83-1.07-4.29-3.22,2.32-9.47,3.48-17.2,3.48-23.19,0-4.47-.27-7.84-.8-10.12-.54-2.28-1.25-3.82-2.14-4.62s-2.19-1.52-3.89-2.14c-1.61-.62-2.41-1.61-2.41-2.95,0-1.25.51-2.66,1.54-4.22,1.03-1.56,2.46-2.88,4.29-3.95,1.83-1.07,3.82-1.61,5.97-1.61,5.45,0,8.18,3.8,8.18,11.39,1.7-3.75,3.73-6.63,6.1-8.64,2.37-2.01,5.29-3.02,8.78-3.02,2.59,0,4.64.56,6.17,1.68,1.52,1.12,2.28,2.84,2.28,5.16s-.78,4.67-2.35,6.77v-.02Zm50.6,42.56c-9.83,0-16.44-7.86-19.84-23.59-.18-.89-.27-1.52-.27-1.88,0-2.06,1.21-3.17,3.62-3.35,3.22-.36,5.87-1.32,7.98-2.88,2.1-1.56,3.15-3.55,3.15-5.96,0-1.34-.36-2.39-1.07-3.15-.72-.76-1.74-1.14-3.08-1.14-2.5,0-5.07,1.21-7.71,3.62-2.64,2.41-4.85,5.14-6.64,8.18-2.77,4.91-4.74,9.43-5.9,13.54v5.36c0,3.31-.96,6.03-2.88,8.18-1.92,2.14-4.45,3.22-7.57,3.22-1.07,0-2.03-.29-2.88-.87s-1.19-1.36-1.01-2.35c3.22-17.24,4.83-31.94,4.83-44.1,0-8.13-.29-14.61-.87-19.43-.58-4.83-1.94-9.47-4.09-13.94-.98-1.96-1.47-3.49-1.47-4.56,0-1.7,1.01-3.35,3.02-4.96,2.01-1.61,4.09-2.41,6.23-2.41,3.13,0,5.29,1.88,6.5,5.63s1.81,9.65,1.81,17.69c0,13.4-1.47,26.63-4.42,39.67l.54.27c3.04-7.51,7.01-13.85,11.93-19.03,4.91-5.18,10.37-7.77,16.35-7.77,4.02,0,7.22,1.23,9.58,3.69,2.37,2.46,3.55,5.47,3.55,9.05,0,3.93-1.43,7.53-4.29,10.79-2.86,3.26-6.75,6.01-11.66,8.24,2.5,6.52,6.88,9.78,13.14,9.78,1.07,0,1.96-.09,2.68-.27h.4c.89,0,1.34,1.12,1.34,3.35,0,2.95-.8,5.59-2.41,7.91-1.61,2.32-4.47,3.49-8.58,3.49v-.02Z"/>
        <path d="m135.28,107.61c3.22,0,5.9-.67,8.04-2.01s3.22-3.04,3.22-5.09c0-1.7-.72-3.02-2.14-3.95-1.43-.94-3.4-1.41-5.9-1.41-3.4,0-6.3.87-8.71,2.61s-4.16,4.18-5.23,7.3c1.25.8,2.86,1.43,4.83,1.88,1.96.45,3.93.67,5.9.67h0Z"/>
      </g>
      <path d="m325.39,42.49l-2.92,20.24c92.22-24.58-3.65,98.11-31.18,90.4,0,0-1.2.05-19.44,28.02,76.85-4.69,183.3-160.43,53.54-138.66Z"/>
    </g>
  </g>
</svg>