<?xml version="1.0" encoding="UTF-8"?>
<svg id="Layer_2" data-name="Layer 2" xmlns="http://www.w3.org/2000/svg" viewBox="0 0 441.5 245.01">
  <defs>
    <style>
      .cls-1 {
        fill: none;
      }

      .cls-1, .cls-2 {
        stroke-width: 3px;
      }

      .cls-1, .cls-2, .cls-3 {
        stroke: #000;
      }
    </style>
  </defs>
  <g id="Layer_1-2">
    <path class="cls-3" d="m399.41,38.35c7.34-1.84,22.2-4.31,41.59-7.91V12.83c-7.91,1.63-12.32,2.42-12.32,2.42-49.82,8.94-53.91,12.32-63.15,29.26-3.76,6.89-6.16,47.75-6.16,47.75,0,52.37-9.45,55.65-12.32,58.53-6.16,6.16-18.48,3.08-18.48,3.08-10.5-1.58-18.95-17.98-18.23-34.73,1.29-29.95,2.83-64.8,2.83-71.54,0-10.89-3.08-20.02-3.08-20.02-21.59-38.1-81.94-32.22-102.44-5.66-4.36,5.65-6.92,12.23-6.92,19.52,0,41.59-12.92,43.75-17.36,43.29-7.4-.77-16.91-8.83-14.98-46.37,2.45-47.87-62.58-27.27-89.1-16.93-9.79,3.82-20.14,5.97-30.64,6.43-12.34.55-29.14.82-48.15.89v14.09c8.9-.18,34.16.87,35.42,18.62,0,0,.32,8.73,6.16,13.86,8.61,7.55,24.52,9.72,30.8-15.4,1.54-6.16,1.54-7,1.54-9.24,0-5.62,2.63-8.19,4.62-4.62,1.29,2.3,1.65,9.46,3.08,12.32,5.92,11.83,28.5,10.68,29.26-3.08,1.54-27.72,15.4-29.26,15.4-29.26,30.8-9.24,28.27,25.45,26.18,52.37-.77,9.95.3,35.33,7.7,44.67,12.8,16.16,28.06,11.54,38.51,6.16,7.84-4.03,11-12.98,12.32-16.94,5.09-15.26-6.16-56.99,16.94-81.63,23.1-24.64,89.33-18.48,56.99,55.45-32.34,73.93-16.94,109.35-3.08,121.68s69.31,24.64,104.73-1.54c35.42-26.18-1.54-117.06-1.54-117.06,0,0-16.94-43.13,13.86-50.83l.02-.02Z"/>
    <g>
      <path class="cls-1" d="m103.5,120.84H30.4L3.7,162.16h24.96c8.9,9.7,17.4,10.07,25.48,0h25.48c8.8,10.04,17.22,9.73,25.28,0h25.29l-26.7-41.32h.01Z"/>
      <path class="cls-2" d="m61.55,120.84l-7.63,41.32c8.48,9.88,16.95,9.88,25.43,0l-4.45-41.32h-13.35Z"/>
      <path class="cls-2" d="m88.25,120.84l16.53,41.32c9.53,10.15,17.95,9.61,25.43,0l-26.7-41.32h-15.26Z"/>
      <path class="cls-2" d="m3.71,162.15c7.65,9.73,15.89,10.03,24.79,0l17.8-41.32h-15.89L3.71,162.15h0Z"/>
      <rect class="cls-2" x="19.6" y="162.15" width="8.9" height="77.55"/>
      <rect class="cls-2" x="104.78" y="162.15" width="8.9" height="77.55"/>
      <rect class="cls-2" x="12.61" y="203.47" width="108.06" height="40.04"/>
    </g>
  </g>
</svg>