<?xml version="1.0" encoding="UTF-8"?>
<svg id="Layer_2" data-name="Layer 2" xmlns="http://www.w3.org/2000/svg" viewBox="0 0 399.2 272.05">
  <defs>
    <style>
      .cls-1, .cls-2 {
        stroke: #000;
        stroke-miterlimit: 10;
      }

      .cls-3 {
        fill: none;
      }

      .cls-2 {
        fill: red;
      }
    </style>
  </defs>
  <g id="Layer_1-2">
    <g id="Stevenson_Coffee_House">
      <g>
        <path class="cls-3" d="m271.1,192.59c1.82-2.05,3.63-4.18,5.39-6.35.78-.96,1.56-1.94,2.31-2.92,1.03-1.34,2.04-2.69,3.02-4.04,4.77-6.65,8.68-13.43,10.51-19.59.56-1.9.93-3.73,1.06-5.49.45-5.95-1.76-10.97-8-14.2-1.5-.78-3.23-1.45-5.2-2.01-3.91-1.1-8.78-1.76-14.79-1.88l-.07.23c1.15-11.58,1.27-19.57,1.22-22.72l-.6-1.53c-.08,0-.16.02-.24.03-6.8.74-14.38,1.33-22.43,1.8-1.46.08-2.93.16-4.41.24-4.9.25-9.94.45-15.07.61-5.24.16-10.57.28-15.92.35-7.54.1-15.12.12-22.54.05-1.4-.01-2.8-.03-4.19-.04-10.43-.14-20.47-.43-29.57-.87l-22.97,46.98c1.28,7.08,2.86,14.7,4.83,22.71l12.77-1.14-12.77,1.14c.7,2.86,1.46,5.77,2.26,8.73.02.09.05.18.07.27.8,2.94,1.66,5.93,2.57,8.95,2.88,9.54,6.3,19.42,10.39,29.45h93.93c2.04-5.59,3.91-11.03,5.62-16.32-.13.09-.21.14-.25.15l.25-.15c1.17-.84,6.06-5.09,12.21-11.21,3.25-3.24,6.85-6.99,10.45-11.05.05-.06.1-.12.15-.17h0Zm-82.86-14.11l21.74-42.25,4.5,40.5-26.24,1.75Zm44.3,1.03l19.61,3-19.61-3Zm28.56,11.29c-.06.06-.11.12-.17.18-3.79,4.16-6.84,7.23-7.89,8.34.9-3.17,1.73-6.27,2.52-9.29.02-.07.04-.14.05-.21.57-2.21,1.11-4.39,1.63-6.53h0l5.59-27.64c.38-2.36.73-4.63,1.04-6.82.22-1.54.42-3.03.6-4.48,24.82-1.57,21.68,12.32,12.43,26.59-.9,1.39-1.85,2.77-2.85,4.15-2.4,3.33-5.02,6.6-7.58,9.62-1.86,2.19-3.68,4.25-5.37,6.1h0Z"/>
        <path class="cls-3" d="m171.83,80.47c1.88-3.31,2.53-6.43,2.4-9.33-.09-2.05-.57-3.99-1.29-5.81-1.41-3.58-3.74-6.72-5.8-9.34l-7.11,4.95s11.06,8.77,2.57,19.46c-2.67,3.37-3.29,7.29-3.01,10.85.19,2.46.8,4.74,1.45,6.54.21.59.43,1.13.64,1.61.36.81.69,1.45.92,1.84l7.63-2.6c-1.12-4.59-3.69-8.84,1.61-18.19v.02Z"/>
        <path class="cls-3" d="m199.53,103.41c-.23-1-.53-1.97-.82-2.98-.47-1.64-.89-3.38-.86-5.43.04-2.65.82-5.83,3.22-10.06.51-.9.93-1.79,1.27-2.67,1.36-3.51,1.4-6.78.69-9.78-1.12-4.72-4.09-8.77-6.65-12.03l-7.11,4.95s11.06,8.77,2.57,19.46c-2.99,3.77-3.4,8.24-2.88,12.12.38,2.8,1.25,5.29,2,6.97.34.77.66,1.37.88,1.75l7.7-2.31h-.01Z"/>
        <path class="cls-3" d="m223.32,55.84l-5.57,3.88.34,2.93c2.27,2.6,5.5,7.69,2.97,13.8-.51,1.23-1.25,2.51-2.29,3.81-6.16,7.75-1.4,18.49,0,20.84l7.7-2.31c-.15-.63-.32-1.26-.5-1.89-.63-2.17-1.33-4.41-1.14-7.29.11-1.57.49-3.32,1.29-5.36.48-1.21,1.08-2.51,1.89-3.93,5.81-10.24-.1-18.62-4.7-24.48h.01Z"/>
        <path class="cls-3" d="m147.83,114.07l-20.28,41.02c.33,2,.68,4.06,1.06,6.16l22.97-46.98c-1.27-.06-2.52-.13-3.75-.19h0Z"/>
        <polygon class="cls-3" points="304.98 111.23 298.14 104.59 304.09 111.07 304.98 111.23"/>
        <path class="cls-1" d="m204.05.51s-.05-.02-.07,0L.58,198.04l2.41,6.43h0s.02,0,.03.02l45.1-4.02-31.76-.5L176.32,34.35l32.65-15.94,70.03,65.36,19.12,20.82,6.84,6.64-.89-.16,87.09,94.81-50.28-.79,52.5,9.4-.03.05s.05-.03.07-.01l.69.6,4.48-8.37L204.02.51h.03Z"/>
        <path class="cls-1" d="m340.19,205.08l-79.7-1.26c-6.15,6.12-11.04,10.37-12.21,11.21-1.71,5.29-3.58,10.73-5.62,16.32h-93.93c-4.09-10.03-7.51-19.92-10.39-29.45l-85.75-1.35-48.69,4.45,30.16,55.5,178.25-9,10.09-9,11.29,9,126.71,20,32.97-56.95h0l-53.19-9.46h.01Z"/>
        <polygon class="cls-1" points="340.9 205.09 340.19 205.08 393.38 214.53 393.38 214.53 393.41 214.49 340.9 205.09"/>
        <path class="cls-1" d="m264.47,144.35c-.18,1.45-.38,2.94-.6,4.48l13.03,22.1c9.25-14.27,12.39-28.15-12.43-26.59h0Z"/>
        <path class="cls-1" d="m280.88,186.91l-2.07-3.59c-.76.98-1.53,1.95-2.31,2.92l4.39.67h-.01Z"/>
        <path class="cls-1" d="m207.88,115.12l-1.4-15.38-7.77.7c.29,1.01.59,1.98.82,2.98l-7.7,2.31c-.23-.38-.54-.98-.88-1.75l-5.62,11.2c7.42.07,15,.05,22.54-.05h.01Z"/>
        <path class="cls-1" d="m262.83,155.65c-1.34,8.23-3.14,17.49-5.58,27.64l9.23,1.41c2.56-3.02,5.18-6.29,7.58-9.62l-11.22-19.43h-.01Z"/>
        <path class="cls-1" d="m197.85,95l7.94-.65-1.54-15.44-1.91,3.36c-.34.87-.76,1.76-1.27,2.67-2.4,4.23-3.18,7.41-3.22,10.06h0Z"/>
        <path class="cls-1" d="m286.86,187.82l23.21,3.55-17.73-31.69c-1.83,6.16-5.74,12.95-10.51,19.59l5.04,8.55h-.01Z"/>
        <path class="cls-1" d="m265.33,136.34l.07-.23c6.01.12,10.88.78,14.79,1.88l-13.64-24.37c.05,3.15-.08,11.14-1.22,22.72Z"/>
        <path class="cls-1" d="m191.83,84.88c8.5-10.7-2.57-19.46-2.57-19.46l7.11-4.95c2.56,3.26,5.53,7.31,6.65,12.03l.49-.89-4.54-42.38-5,2-19.75,39.91c.13,2.9-.52,6.01-2.4,9.33-5.3,9.35-2.73,13.59-1.61,18.19l18.74-1.65c-.53-3.87-.12-8.35,2.88-12.12h0Z"/>
        <path class="cls-1" d="m293.4,154.2l21.35,37.9,23.47,3.59-47.74-83.5-23.01-4.01,17.93,31.83c6.24,3.23,8.45,8.25,8,14.2h0Z"/>
        <path class="cls-1" d="m160.17,99.54l1.5-.13c-.21-.48-.43-1.02-.64-1.61l-.86,1.74Z"/>
        <path class="cls-1" d="m124.29,112.15c6.33.78,14.39,1.42,23.54,1.92l4.68-9.47-30.14,2.71-39.16,81.11,29.14-2.59,15.2-30.74c-3.63-22.25-4.14-38.1-4.21-42.08,0-.52.43-.92.95-.85h0Z"/>
        <path class="cls-1" d="m116.78,185.43l16.66-1.48c-1.97-8.01-3.56-15.63-4.83-22.71l-11.83,24.19h0Z"/>
        <path class="cls-1" d="m188.24,101.38l-31.76,2.86-4.9,10.02c9.1.44,19.13.73,29.57.87l7.1-13.75h0Z"/>
        <path class="cls-1" d="m262.98,107.23l-26-4,6.3,10.68c8.05-.47,15.63-1.06,22.43-1.8l-2.73-4.88Z"/>
        <path class="cls-1" d="m231.98,102.23l-10-2,1.82,14.53c5.13-.16,10.17-.36,15.07-.61l-6.88-11.92h-.01Z"/>
        <path class="cls-1" d="m162.59,80.41c8.5-10.7-2.57-19.46-2.57-19.46l7.11-4.95c2.06,2.63,4.38,5.76,5.8,9.34l17.05-33.1-8.14,3.04-44.86,44.96-11.54,22.37,29.64-2.62,4.49-8.73c-.27-3.56.34-7.49,3.01-10.85h.01Z"/>
        <path class="cls-1" d="m225.97,96.91l5.37.91-6.51-8.19c-.19,2.88.51,5.12,1.14,7.29h0Z"/>
        <polygon class="cls-1" points="106.48 108.73 70.13 147.3 48.34 191.52 77.84 188.9 118.98 107.61 106.48 108.73"/>
        <path class="cls-1" d="m223.32,55.84c4.6,5.85,10.51,14.23,4.7,24.48-.81,1.43-1.42,2.73-1.89,3.93l9.22,14.23,24.41,4.12-45.54-73.37,3.54,30.49,5.57-3.88h0Z"/>
        <polygon class="cls-1" points="293.98 109.23 304.09 111.07 298.14 104.59 270.98 78.23 293.98 109.23"/>
        <polygon class="cls-1" points="286.54 107.12 264.98 76.27 221.98 32.23 264.98 103.49 286.54 107.12"/>
        <path class="cls-1" d="m135.7,192.67l-87.57,7.8,4.47.07,83.17-7.6c-.02-.09-.05-.18-.07-.27h0Z"/>
        <polygon class="cls-1" points="23.48 193.73 44.38 191.87 60.58 157.36 23.48 193.73"/>
        <path class="cls-1" d="m218.09,62.65l1.3,11.21,1.67,2.58c2.52-6.1-.7-11.2-2.97-13.8h0Z"/>
        <polygon class="cls-1" points="383.41 202.49 346.41 159.49 370.41 200.49 383.41 202.49"/>
        <polygon class="cls-1" points="131.98 84.23 114.17 103.23 122.42 102.61 131.98 84.23"/>
        <path class="cls-1" d="m366.24,199.97s-24.54-50.53-63.4-85.63l-7.88-1.38,48.19,83.47,23.1,3.53h0Z"/>
        <path class="cls-1" d="m133.44,183.95l-16.66,1.48,11.83-24.19c-.38-2.1-.73-4.16-1.06-6.16l-15.2,30.74-29.14,2.59,39.16-81.11,30.14-2.71-4.68,9.47c1.23.07,2.48.13,3.75.19l4.9-10.02,31.76-2.86-7.1,13.75c1.39.02,2.79.03,4.19.04l5.62-11.2c-.74-1.68-1.61-4.16-2-6.97l-18.74,1.65c.02.1.05.19.07.29l-7.7,2.31c-.24-.39-.57-1.03-.92-1.84l-1.5.13.86-1.74c-.65-1.8-1.26-4.08-1.45-6.54l-4.49,8.73-29.64,2.62,11.54-22.37,44.86-44.96,8.14-3.04-17.05,33.1c.72,1.82,1.2,3.76,1.29,5.81l19.75-39.91,5-2,4.54,42.38-.49.89c.71,3,.67,6.27-.69,9.78l1.91-3.36,1.54,15.44-7.94.65c-.03,2.06.39,3.79.86,5.43l7.77-.7,1.4,15.38c5.35-.07,10.68-.19,15.92-.35l-1.82-14.53,10,2,6.88,11.92c1.49-.08,2.96-.16,4.41-.24l-6.3-10.68,26,4,2.73,4.88c.08,0,.16-.02.24-.03.31-.03.57.19.58.5,0,.26.02.6.02,1.03l13.64,24.37c1.98.56,3.71,1.23,5.2,2.01l-17.93-31.83,23.01,4.01,47.74,83.5-23.47-3.59-21.35-37.9c-.13,1.76-.5,3.59-1.06,5.49l17.73,31.69-23.21-3.55-5.04-8.55c-.97,1.35-1.98,2.7-3.02,4.04l2.07,3.59-4.39-.67c-1.76,2.17-3.58,4.3-5.39,6.35l69.8,12.5,50.28.79-87.09-94.81-10.11-1.84-23-31,27.16,26.36-19.12-20.82L208.95,18.4l-32.65,15.94L16.34,199.96l31.76.5,87.57-7.8c-.8-2.95-1.56-5.86-2.26-8.73l.03.02Zm249.97,18.54l-13-2-24-41,37,43Zm-80.57-88.15c38.86,35.1,63.4,85.63,63.4,85.63l-23.1-3.53-48.19-83.47,7.88,1.38h0Zm-37.86-38.07l21.56,30.86-21.56-3.64-43-71.25,43,44.03h0Zm-5.23,26.34l-24.41-4.12-9.22-14.23c-.8,2.04-1.18,3.8-1.29,5.36l6.51,8.19-5.37-.91c.18.63.36,1.26.5,1.89l-7.7,2.31c-1.4-2.35-6.16-13.09,0-20.84,1.04-1.3,1.78-2.58,2.29-3.81l-1.67-2.58-1.3-11.21c-1.04-1.19-1.88-1.85-1.88-1.85l1.54-1.07-3.54-30.49,45.54,73.37h0Zm-127.77-18.37l-9.57,18.37-8.25.63,17.82-19Zm-87.6,107.64l-20.9,1.86,37.09-36.38-16.2,34.52h.01Zm3.96-.35l21.79-44.22,36.35-38.57,12.5-1.12-41.14,81.29-29.5,2.63h0Z"/>
        <path class="cls-1" d="m276.9,170.93l-13.03-22.1c-.31,2.19-.66,4.46-1.04,6.82l11.22,19.43c.99-1.38,1.95-2.77,2.85-4.15h0Z"/>
        <path class="cls-1" d="m255.62,189.82l5.49.98c1.69-1.85,3.51-3.9,5.37-6.1l-9.23-1.41c-.51,2.14-1.06,4.31-1.63,6.53Z"/>
        <path class="cls-1" d="m260.49,203.82l79.7,1.26-69.24-12.31c-3.6,4.06-7.2,7.82-10.45,11.05h-.01Z"/>
        <path class="cls-1" d="m253.05,199.33c1.05-1.11,4.09-4.18,7.89-8.34l-5.37-.96c-.78,3.03-1.62,6.13-2.52,9.29h0Z"/>
        <path class="cls-1" d="m135.78,192.94l-83.17,7.6,85.75,1.35c-.91-3.02-1.77-6.01-2.57-8.95h-.01Z"/>
        <path class="cls-1" d="m255.57,190.03l5.37.96c.06-.06.11-.12.17-.18l-5.49-.98c-.02.07-.04.14-.05.21h0Z"/>
        <path class="cls-1" d="m270.95,192.77l69.24,12.31h.71l-69.8-12.48c-.05.06-.1.12-.15.17h0Z"/>
        <path class="cls-3" d="m124.29,112.15c-.51-.06-.95.34-.95.85.07,3.98.58,19.83,4.21,42.08l20.28-41.02c-9.15-.5-17.21-1.14-23.54-1.92h0Z"/>
        <path class="cls-2" d="m257.24,183.29h0c2.44-10.15,4.25-19.41,5.58-27.64l-5.59,27.64h.01Z"/>
        <polygon class="cls-3" points="188.24 178.48 214.48 176.73 209.98 136.23 188.24 178.48"/>
        <path class="cls-2" d="m266.53,112.59c0-.31-.27-.54-.58-.5l.6,1.53c0-.43-.01-.77-.02-1.03h0Z"/>
        <path class="cls-2" d="m248.29,215.03l-.25.15s.12-.06.25-.15Z"/>
        <path class="cls-2" d="m170.29,98.94c-.02-.1-.05-.19-.07-.29l-7.63,2.6,7.7-2.31Z"/>
        <path class="cls-2" d="m216.21,60.8s.84.67,1.88,1.85l-.34-2.93-1.54,1.07h0Z"/>
      </g>
    </g>
  </g>
</svg>