<?xml version="1.0" encoding="UTF-8"?>
<svg id="Layer_2" data-name="Layer 2" xmlns="http://www.w3.org/2000/svg" viewBox="0 0 421.51 272.05">
  <defs>
    <style>
      .cls-1 {
        fill: none;
      }

      .cls-1, .cls-2 {
        stroke: #000;
        stroke-miterlimit: 10;
      }
    </style>
  </defs>
  <g id="newmaster-finals">
    <g id="Stevenson_Coffee_House">
      <path class="cls-2" d="m420.3,217.34l-10.71-10.59-.25.42.22-.41L214.99.51h.03s-.05-.02-.07,0L11.56,198.03h-.01s-10.25,9.31-10.25,9.31h14.84l-1.27-2.34.23-.02,1.2,2.36h-.16l28.89,53.16,178.25-9,10.09-9,11.29,9,126.71,20,32.97-56.95-53.19-9.46h.01s.71,0,.71,0l52.48,9.4h.03l-.03.04s.03,0,.04,0l.38.33-1.47,2.48h17ZM225.2,29.27l3.53,30.44,5.55-3.87h.01c.2.27.41.53.61.8.11.13.21.26.31.4.32.41.63.82.94,1.25.11.15.21.3.31.44.42.58.82,1.18,1.21,1.79h0c.13.21.26.42.38.63.26.41.5.83.73,1.26.24.43.46.87.67,1.31.11.22.21.45.31.67.5,1.13.91,2.31,1.19,3.53.08.31.14.62.19.93.23,1.23.31,2.5.23,3.81-.02.37-.05.73-.1,1.1-.07.53-.16,1.05-.29,1.59-.13.54-.28,1.08-.47,1.62-.19.55-.41,1.1-.66,1.66-.26.56-.55,1.12-.87,1.69-.81,1.42-1.41,2.72-1.89,3.93h0c-.8,2.05-1.18,3.81-1.29,5.37h0c-.19,2.88.51,5.12,1.14,7.28v.02c.18.62.36,1.25.5,1.87l-7.7,2.31c-1.4-2.35-6.16-13.09,0-20.84,1.04-1.3,1.78-2.58,2.29-3.81h0c2.4-5.83-.41-10.74-2.65-13.43-.11-.13-.2-.24-.32-.36v-.02c-.15-.15-.26-.27-.38-.4-.11-.13-.23-.25-.35-.37l-.17-.17c-.05-.05-.1-.1-.15-.15-.06-.05-.11-.1-.16-.15-.05-.05-.1-.1-.15-.14-.05-.04-.09-.08-.13-.12-.04-.03-.08-.07-.12-.1-.07-.06-.13-.11-.17-.15-.03-.02-.05-.04-.06-.05-.01,0-.02-.02-.03-.03h-.01v-.02l1.54-1.07-3.54-30.47.02.02Zm-17.85,31.19c1.28,1.63,2.66,3.46,3.86,5.47.14.25.29.51.44.77.13.23.25.45.37.68.25.45.48.92.69,1.39h0c.54,1.19.98,2.43,1.29,3.71h0c.15.62.26,1.24.33,1.87.23,1.85.15,3.79-.36,5.82-.11.44-.24.89-.39,1.34-.08.24-.17.49-.26.74v.02s-.02,0-.02,0c-.33.87-.75,1.75-1.26,2.66-2.4,4.23-3.18,7.41-3.22,10.06l7.93-.65h0s-7.93.66-7.93.66c-.03,2.05.39,3.78.86,5.42h0c.29,1.01.59,1.98.82,2.97h0,0s0,0,0,0l-7.69,2.31c-.22-.38-.54-.98-.88-1.75-.09-.21-.19-.43-.29-.67-.1-.23-.19-.48-.29-.73-.19-.52-.38-1.07-.56-1.66-.09-.3-.18-.61-.26-.92-.17-.62-.32-1.28-.44-1.95h0c-.06-.34-.12-.68-.17-1.02v-.02c-.3-2.17-.3-4.54.3-6.86.2-.82.48-1.63.85-2.43.44-.96,1.01-1.91,1.73-2.81h0s.01-.02.01-.02c.29-.37.56-.73.81-1.1.24-.36.47-.73.68-1.09.31-.54.57-1.07.79-1.6.21-.52.39-1.04.53-1.56.07-.25.13-.51.18-.76.04-.19.07-.37.1-.56.21-1.46.12-2.84-.16-4.12-.11-.48-.24-.94-.39-1.38-.2-.59-.43-1.14-.69-1.67-.26-.52-.54-1.02-.83-1.48-.1-.16-.2-.3-.3-.45-.1-.15-.2-.29-.3-.43-.27-.38-.54-.72-.8-1.03-.08-.09-.15-.18-.22-.27-.22-.25-.43-.47-.63-.68-.06-.07-.13-.13-.19-.2l-.35-.35c-.11-.11-.21-.2-.3-.28-.05-.05-.09-.08-.13-.12-.06-.05-.11-.1-.16-.14-.04-.03-.07-.06-.09-.08-.09-.07-.13-.1-.13-.1h.01s7.1-4.95,7.1-4.95h.01Zm-30.85,9.15c-.11-.48-.24-.94-.39-1.38-.2-.58-.43-1.14-.69-1.67-.26-.53-.54-1.02-.83-1.48-.1-.16-.2-.31-.3-.45-.1-.15-.2-.29-.3-.43-.27-.37-.54-.72-.8-1.03-.08-.09-.15-.18-.22-.27-.22-.25-.43-.47-.63-.68-.06-.07-.13-.13-.19-.2-.06-.06-.12-.12-.18-.18l-.17-.17c-.11-.11-.21-.2-.3-.28-.05-.05-.09-.08-.13-.12-.06-.05-.11-.1-.16-.14-.07-.06-.12-.1-.16-.14-.02-.01-.04-.02-.04-.03h-.02s.01-.02.01-.02l7.1-4.94h.01c2.06,2.61,4.39,5.74,5.8,9.32h0c.72,1.82,1.2,3.76,1.29,5.8v.02c.13,2.9-.52,6.02-2.4,9.33-.31.54-.59,1.07-.84,1.57-.27.51-.5,1.01-.71,1.49-.2.48-.38.93-.55,1.38-.09.23-.17.45-.23.66-.07.22-.14.43-.2.64,0,0-.01,0-.01.02-.12.42-.22.82-.31,1.21,0,0,0,.01,0,.02-.08.34-.14.68-.19,1-.04.24-.07.48-.09.71-.42,3.9.85,6.62,1.54,9.47h0v.02c.02.1.05.18.07.28l-7.7,2.31h.01s-.02-.01-.02-.01c-.24-.39-.57-1.02-.91-1.83h0l-1.49.13h.01s-.02-.01-.02-.01l.86-1.74c-.65-1.8-1.26-4.07-1.45-6.53h0c-.27-3.57.34-7.49,3.01-10.85h.02c.29-.38.56-.74.81-1.11.24-.36.47-.73.68-1.09.31-.54.57-1.07.79-1.6.21-.52.39-1.04.53-1.56.07-.26.13-.51.18-.76.04-.19.07-.37.1-.56.21-1.46.12-2.84-.16-4.12Zm-40.09,32.99h.01l29.63-2.62h0s-29.64,2.63-29.64,2.63h0Zm-64.87,54.76v.02s-18.36,17.99-18.36,17.99l18.36-18.01Zm-16.2,34.52l-20.89,1.86h.01s20.88-1.87,20.88-1.87h0Zm33.47-2.97l-29.5,2.63v-.02h.01l29.49-2.62h0Zm41.14-81.29h0l-12.49,1.12h0s12.5-1.13,12.5-1.13h0Zm-4.82-4.38h0s7.62-.58,7.62-.58l-7.63.58Zm179.28,50.24c-.02.24-.03.48-.05.72v.02c-.13,1.75-.5,3.58-1.06,5.47v.02c-.11.38-.23.76-.37,1.14-1.43,4.29-3.81,8.85-6.74,13.43-.53.83-1.08,1.66-1.65,2.49-.56.83-1.14,1.67-1.74,2.5l5.04,8.55h-.04l-5.02-8.52c-.98,1.34-1.99,2.69-3.01,4.02t-.01.02h0c-.16.21-.32.42-.49.62-.42.55-.86,1.1-1.3,1.65-.16.21-.33.42-.5.63h-.01c-1.76,2.17-3.57,4.3-5.39,6.35h0c-.05.07-.1.13-.15.18-3.6,4.06-7.2,7.82-10.45,11.05h-.01c-6.13,6.1-11.01,10.35-12.2,11.21h0c-1.71,5.3-3.58,10.73-5.62,16.32h-93.93c-4.09-10.03-7.51-19.92-10.39-29.45h0c-.91-3.03-1.77-6.01-2.57-8.95h0c-.02-.1-.05-.19-.07-.28-.8-2.96-1.56-5.86-2.26-8.72h-.02s0-.01,0-.02l.03.02c-.74-3-1.42-5.95-2.06-8.84-.42-1.92-.82-3.82-1.2-5.69-.38-1.86-.74-3.7-1.08-5.5-.17-.9-.33-1.79-.49-2.67h0c-.38-2.11-.73-4.16-1.06-6.16h0c-3.63-22.26-4.14-38.11-4.21-42.09,0-.07.01-.14.03-.21.01-.05.02-.09.04-.13.04-.1.1-.19.18-.27.07-.07.16-.14.26-.17.05-.03.1-.05.15-.05.09-.03.19-.03.29-.02h0c1.19.14,2.44.28,3.74.42,1.3.13,2.66.27,4.08.39,1.88.17,3.86.33,5.92.48,1.54.12,3.14.22,4.77.33,1.64.1,3.32.2,5.03.29l4.67-9.46-30.13,2.71h0s30.14-2.72,30.14-2.72h0s-4.68,9.47-4.68,9.47c1.23.07,2.48.13,3.75.19h0c9.1.45,19.13.74,29.57.88,1.39.01,2.79.03,4.19.04,7.42.07,14.99.05,22.53-.05h.01c5.35-.07,10.67-.19,15.91-.35l-1.82-14.53h0l1.82,14.52c5.12-.16,10.15-.36,15.04-.61h.01c1.49-.07,2.96-.15,4.41-.23h.02c8.04-.47,15.62-1.06,22.41-1.8h.04c.06-.01.12-.02.18-.03h.04s.1,0,.14.01c.25.03.44.23.44.49,0,.26.02.6.02,1.03v.04c.02,1.41.01,3.77-.11,6.96-.01.38-.03.78-.05,1.19-.01.23-.02.47-.03.7-.02.42-.04.86-.07,1.31-.03.48-.05.97-.08,1.47-.05.97-.12,1.99-.2,3.05-.08,1.09-.16,2.22-.26,3.4-.07.87-.15,1.77-.24,2.7-.01.08-.01.16-.02.25-.01.08-.01.16-.02.24-.04.57-.07,1.18-.07,1.18,6,.12,10.86.78,14.77,1.87h0s.99.3,1.45.45c.69.23,1.35.47,1.97.74.21.09.42.18.63.27.39.17.77.36,1.14.55.01,0,.02,0,.03.01h.01c2.5,1.31,4.36,2.89,5.65,4.71.37.51.69,1.05.97,1.6.28.56.52,1.13.71,1.72.08.21.14.42.19.64.05.16.1.31.13.47.07.29.13.59.18.89.1.58.17,1.17.2,1.78.03.54.03,1.1.01,1.66h0Zm-28.46-49.99l21.55,3.63h0s-21.56-3.63-21.56-3.63Zm6.08-25.16l-.08-.1,26.88,26.08-18.88-20.55h.02s18.86,20.55,18.86,20.55l.24.27-27.04-26.25Zm33.9,32.9l-.87-.16-5.79-6.3-.18-.18-.16-.18.18.18,6.84,6.64h-.02Zm35.9,93.85l-24.96-4.47,25,4.47h-.04Zm25.38-5.11h-.01s.02,0,.02,0h-.01Z"/>
      <path class="cls-1" d="m304.4,151.81c-.04-.61-.11-1.2-.2-1.78-.05-.3-.11-.6-.18-.89-.03-.16-.08-.31-.13-.47-.05-.22-.12-.43-.19-.64-.19-.59-.43-1.16-.71-1.72-.28-.55-.6-1.09-.97-1.6-1.29-1.82-3.15-3.4-5.65-4.7h-.01s-.02-.02-.03-.02c-.37-.19-.75-.38-1.14-.55-.21-.09-.42-.18-.63-.27-.62-.27-1.28-.51-1.97-.74-.46-.15-1.45-.45-1.45-.45-3.91-1.09-8.77-1.75-14.77-1.87,0,0,.02-.72.07-1.18,0-.08,0-.16.02-.24.01-.09.01-.17.02-.25.09-.93.17-1.83.24-2.7.1-1.18.18-2.31.26-3.4.07-1.06.14-2.08.2-3.05.03-.5.05-.99.08-1.47.03-.45.05-.89.07-1.31.01-.23.02-.47.03-.7.02-.41.04-.81.05-1.19.12-3.19.13-5.55.11-6.96l-.02-.04v-.05l-.58-1.48h-.04c-.06.01-.12.02-.18.03h-.04c-6.79.74-14.37,1.33-22.41,1.8h-.02c-1.45.08-2.92.16-4.41.24-4.89.25-9.93.45-15.05.61h-.01c-5.24.16-10.56.28-15.91.35h-.01c-7.54.11-15.12.13-22.54.06h.01c-1.4-.02-2.8-.04-4.19-.05-10.44-.14-20.47-.43-29.57-.87h0c-1.27-.05-2.52-.12-3.75-.18h0c-1.71-.1-3.39-.2-5.03-.31-1.63-.11-3.23-.21-4.77-.33-2.06-.15-4.04-.31-5.92-.48-1.42-.12-2.78-.26-4.08-.39-1.3-.13-2.55-.27-3.74-.42h0c-.1,0-.2,0-.29.02-.05.01-.1.03-.15.05-.1.03-.19.1-.26.17-.08.08-.14.17-.18.27-.02.04-.03.08-.04.13-.02.07-.03.14-.03.21.07,3.98.58,19.83,4.21,42.08h0c.33,2.01.68,4.06,1.06,6.16h0c.16.89.32,1.78.49,2.68.34,1.8.7,3.64,1.08,5.5.38,1.87.78,3.77,1.2,5.69.64,2.89,3.52,14.6,4.32,17.56.02.09.05.18.07.27h.02c.8,2.94,1.66,5.93,2.57,8.95h-.02c2.88,9.54,6.3,19.43,10.39,29.46h93.93c2.04-5.59,3.91-11.02,5.62-16.31h0s0-.01,0-.01c1.19-.86,6.07-5.11,12.2-11.21,3.25-3.24,6.85-6.99,10.45-11.05.05-.06.1-.12.15-.17h.01s-.04-.02-.04-.02c1.81-2.05,3.63-4.18,5.39-6.35h.04c.17-.2.34-.41.51-.62.44-.55.88-1.1,1.3-1.65.17-.2.33-.41.49-.61h0s-.02-.04-.02-.04c1.04-1.34,2.05-2.69,3.02-4.04l.02.03s.01-.01.01-.02c0,0,0,0,.01,0,.6-.83,1.18-1.67,1.74-2.5.56-.83,1.11-1.66,1.65-2.49,2.93-4.58,5.31-9.14,6.74-13.43.13-.38.25-.76.36-1.14v-.03c.55-1.9.92-3.73,1.05-5.49l.02.03v-.02c.02-.24.03-.48.05-.72h0c.02-.57.02-1.13-.01-1.67Zm-45.31,63.33h0s.08-.05.08-.05c-.03.02-.06.04-.08.05Zm35.57-60.47c-.01.1-.01.2-.02.3,0,.04,0,.07,0,.11-.02.22-.04.44-.07.66-.05.37-.11.74-.18,1.11-.05.28-.12.57-.19.86,0,.02-.01.05-.02.08-.07.28-.14.56-.23.85-.11.4-.24.79-.37,1.19-.09.26-.18.52-.28.79-.16.44-.34.89-.53,1.34-.15.36-.31.72-.48,1.08-.16.37-.33.73-.52,1.1-.17.37-.36.74-.56,1.11-.18.37-.38.74-.6,1.12-.82,1.5-1.74,3.03-2.73,4.56-.9,1.38-1.86,2.76-2.84,4.14h0s0,.02-.01.02c-.4.56-.81,1.11-1.23,1.67-.19.27-.39.54-.6.8-.47.62-.94,1.23-1.42,1.84-.47.61-.95,1.21-1.43,1.81-.96,1.19-1.93,2.36-2.89,3.49-1.86,2.2-3.68,4.25-5.37,6.1h0s0,.01,0,.01c-.06.06-.11.12-.17.18-.47.52-.93,1.02-1.39,1.5-.44.49-.88.95-1.3,1.4-.62.67-1.21,1.28-1.76,1.85-.17.19-.35.38-.53.56-.16.18-.33.36-.49.52-.48.5-.91.94-1.28,1.32-.24.25-.46.47-.65.67-.09.1-.18.19-.27.27-.08.09-.15.16-.22.23h0s-.01.01-.01.01c.9-3.17,1.73-6.27,2.52-9.29.02-.07.04-.14.05-.21.57-2.21,1.11-4.39,1.63-6.53h-.01l5.59-27.64-.03.21c.02-.07.03-.14.04-.21.38-2.36.73-4.63,1.04-6.82.22-1.54.42-3.03.6-4.48h0c1.84-.13,3.53-.16,5.07-.1.07-.01.14,0,.21,0,.33.01.65.02.97.05h.02c.28.02.54.04.81.06.48.04.94.09,1.39.15,1.34.17,2.54.42,3.6.74.23.06.45.13.66.21.15.05.3.1.44.16.15.05.29.1.43.17.2.08.39.17.58.26.38.17.73.36,1.06.57.17.1.33.21.48.31.12.08.23.16.34.25.11.08.22.17.32.25.11.09.21.18.3.27.1.09.2.18.29.27.08.08.16.16.23.24.07.08.13.16.2.24.48.57.86,1.19,1.14,1.86.04.1.08.2.12.3.04.1.08.2.11.31.04.11.07.21.1.32.04.11.07.23.09.35.04.14.07.29.1.44.03.16.06.32.08.48.04.3.07.61.09.93,0,.2.01.4.01.6,0,.21-.01.42-.02.63Z"/>
      <path class="cls-2" d="m294.68,154.04c0,.21-.01.42-.02.63-.01.1-.01.2-.02.3,0,.04,0,.07,0,.11-.02.22-.04.44-.07.66-.05.37-.11.74-.18,1.11-.05.28-.12.57-.19.86,0,.02-.01.05-.02.08-.07.28-.14.56-.23.85-.11.4-.24.79-.37,1.19-.09.26-.18.52-.28.79-.16.44-.34.89-.53,1.34-.15.36-.31.72-.48,1.08-.16.37-.33.73-.52,1.1-.17.37-.36.74-.56,1.11-.19.37-.39.75-.6,1.12-.82,1.5-1.74,3.03-2.73,4.56-.9,1.38-1.86,2.76-2.84,4.14h0s-.01.01-.01.01h0c-.4.57-.81,1.12-1.23,1.68-.19.27-.39.54-.6.8-.47.62-.94,1.23-1.42,1.84-.47.61-.95,1.21-1.43,1.81-.96,1.19-1.93,2.36-2.89,3.49-1.86,2.2-3.68,4.25-5.37,6.1h0s-.01.01-.01.01c-.06.06-.1.11-.16.17h-.01c-.47.53-.93,1.03-1.37,1.51-.44.49-.88.95-1.3,1.4-.64.67-1.22,1.28-1.76,1.85-.17.19-.35.38-.53.56-.17.18-.33.35-.49.52-.48.5-.91.94-1.28,1.32-.25.25-.46.47-.65.67-.1.09-.19.19-.27.27-.08.09-.15.16-.22.23h0s-.01.01-.01.01c.9-3.17,1.73-6.27,2.52-9.29.02-.07.04-.14.05-.21.57-2.21,1.11-4.39,1.63-6.53.76-3.18,1.46-6.26,2.11-9.25.64-2.99,1.23-5.9,1.77-8.7.14-.7.27-1.4.39-2.09.39-2.07.74-4.08,1.06-6.04.08-.45.15-.89.21-1.32,0-.01,0-.02,0-.03.02-.07.03-.14.04-.21.38-2.36.73-4.63,1.04-6.82.22-1.54.42-3.03.6-4.48,1.84-.12,3.53-.15,5.07-.1.07-.01.14,0,.21,0,.33.01.65.03.97.05h.02c.28.02.54.04.81.06.48.04.94.09,1.39.15,1.34.18,2.54.42,3.6.74.23.06.45.13.66.21.15.05.3.1.44.16.15.05.29.1.43.17.2.08.39.17.58.26.38.18.73.37,1.06.57.17.1.33.21.48.31.12.08.23.16.34.25.11.08.22.17.32.25.11.09.21.18.3.27.1.09.2.18.29.27.08.08.16.16.23.24.07.08.13.16.2.24.48.57.86,1.19,1.14,1.86.04.1.08.2.12.3.04.1.08.2.11.31.04.11.07.21.1.32.04.11.07.23.09.35.04.14.07.29.1.44.03.16.06.32.08.48.04.3.07.61.09.93,0,.2.01.4.01.6Z"/>
      <polygon class="cls-2" points="360.59 207.34 360.43 207.34 359.16 205 359.39 204.98 360.59 207.34"/>
    </g>
  </g>
</svg>